<svg id="SvgjsSvg1001" width="600" height="625" xmlns="http://www.w3.org/2000/svg" version="1.1" class="svg-paper" viewBox="0 0 600 600" style="background:#131517"><style>path{stroke:#59149a}</style><g id="SvgjsG2056" style="filter:blur(2px)"><path id="SvgjsPolyline2057" fill="none" stroke="#000" stroke-width="1" d="m1.05 36.44 13.01-7.46 13.25-7.03 10.79-5.26 10.98-4.83 8.4-3.22 8.6-2.66 8.81-1.83 5.97-.57 5.99.06L95.74 5l8.61 2.59 14.1 5.11 5.85 1.33 2.98.28 3-.05 5.9-1.04 8.55-2.82 5.8-1.51 5.97-.34 5.92.93 14.37 4.3 8.83 1.71 8.98.36 20.93-1.66 9-.05 8.9 1.26 14.6 3.39 5.98.41 5.97-.55 14.67-3.14 8.95-.77 5.98.45 17.68 3.38 8.93 1 8.98-.46 14.79-2.47 5.99-.33 5.99.37 14.81 2.33 8.94 1.01 9 .35 17.99-.15 9 .25 26.84 2.83 6-.07 17.89-1.91 8.99-.35 8.98.55 17.9 1.86 14.99.53 9-.24 14.97-.96L600 17.25"/><path id="SvgjsPolyline2058" fill="none" stroke="#000" stroke-width="1" d="M2.15 49.96 14.87 42l12.98-7.51 13.27-6.99 10.86-5.11 8.33-3.4 8.55-2.8 8.79-1.91 5.97-.56 6 .12 8.86 1.51 5.73 1.75 16.84 6.35 5.84 1.35 2.99.27 3-.07 5.88-1.11 8.5-2.95 5.78-1.61 5.97-.45 2.98.29 5.85 1.32 11.42 3.69 8.7 2.3 8.88 1.42 20.88 2.21 5.88 1.17 14.48 3.93 5.9 1.05 2.99.2 5.99-.34 17.55-3.93 8.94-.89 8.95.9 20.52 4.46 8.88 1.39 8.99.01 17.75-2.94 8.98-.42 5.98.5 20.73 3.37 47.59 6.14 9 .11 20.87-2.3 8.99-.32 8.98.59 17.89 1.96 11.98.53 9-.15 11.98-.69 71.7-6.51"/><path id="SvgjsPolyline2059" fill="none" stroke="#000" stroke-width="1" d="m.2 23.04 13.29-6.97 13.49-6.56 10.96-4.88L49.09.2"/><path id="SvgjsPolyline2060" fill="none" stroke="#000" stroke-width="1" d="m119.52.43 5.96.61 5.96-.61"/><path id="SvgjsPolyline2061" fill="none" stroke="#000" stroke-width="1" d="m171.74.18 8.92 1.15 5.99-.15 5.94-.82"/><path id="SvgjsPolyline2062" fill="none" stroke="#000" stroke-width="1" d="m102.98.26 11.34 3.92 5.87 1.21 2.99.2 5.96-.58L143.53.79l5.94-.72 3 .14 5.89 1.1 14.42 4.12 8.92 1.07 5.99-.27 5.94-.83L220.1.1"/><path id="SvgjsPolyline2063" fill="none" stroke="#000" stroke-width="1" d="m100.48.78 14.15 4.97 5.87 1.21 2.99.2 5.97-.57 14.37-4.25 5.94-.74 5.97.55 17.33 4.83 8.91 1.18 8.98-.48 23.61-4.26 8.95-.93 5.99.15 5.96.72 14.65 3.18 5.96.61 5.99-.34 14.71-2.94 8.95-.8 8.95.8 14.79 2.51 5.99.31 5.98-.37 14.81-2.39 5.98-.36 5.99.36 14.83 2.26 8.96.71 9-.19 26.89-2.46 8.99-.29 8.98.52 14.9 1.72 6 .16 5.98-.34 14.92-1.6 8.99-.17 26.89 2.4 11.99.41 12-.29 11.97-.72 59.8-4.94"/><path id="SvgjsPolyline2064" fill="none" stroke="#000" stroke-width="1" d="m1.39 65.14 12.33-8.54 12.63-8.08 12.95-7.58 13.29-6.95 10.97-4.85 8.51-2.92 8.78-1.93 5.98-.51 5.99.24 8.81 1.76 5.69 1.91 16.73 6.62 5.84 1.34 2.99.22 3-.12 5.86-1.25 8.45-3.09 5.75-1.68 2.97-.44 5.98.16 5.87 1.26 19.95 6.53 23.23 6.02 17.23 5.21 8.85 1.57 3 .09 5.97-.52 20.42-4.86 5.97-.54 3 .06 5.95.71 29.27 6.58 8.89 1.31 8.99-.15 17.73-3.1 8.97-.51 11.93 1.19 35.5 5.99 14.87 1.94 5.99.28 6-.15 20.85-2.46 8.99-.41 8.98.52 20.87 2.28 11.99.41 9-.25 11.97-.8 74.68-6.98"/><path id="SvgjsPolyline2065" fill="none" stroke="#000" stroke-width="1" d="M2.6 8.17 18.92.56"/><path id="SvgjsPolyline2066" fill="none" stroke="#000" stroke-width="1" d="m1.39 80.33 14.32-10.91 12.33-8.54 12.66-8.03 13.03-7.44 10.78-5.27 8.38-3.26 8.7-2.29 5.95-.75 5.99.03 2.99.32 5.86 1.23 8.49 2.97 13.79 5.91 5.74 1.72 2.96.49 5.98-.08 2.94-.58 14.1-5.1 2.91-.75 5.96-.56 5.95.72 8.64 2.49 42.53 14.68 8.73 2.2 5.96.61 3-.03 5.95-.72 20.33-5.22 5.96-.65 3 .01 8.9 1.23 32.15 7.45 8.89 1.35 8.99-.1 20.68-3.57 8.99-.32 8.96.79 32.59 5.15 11.93 1.27 6 .18 5.99-.22 20.84-2.56 8.98-.51 8.99.45 20.86 2.36 11.99.49 9-.21 11.97-.79 77.65-7.36"/><path id="SvgjsPolyline2067" fill="none" stroke="#000" stroke-width="1" d="m2.17 95.48 13.77-11.59 11.93-9.1 14.8-10.24 12.74-7.91 10.58-5.66 8.25-3.58 8.61-2.61 5.92-.96 2.99-.18 5.99.3 2.96.47 5.8 1.53 5.61 2.12 16.43 7.33 5.77 1.64 2.97.38 3 .02 5.89-1.08 11.16-4.4 5.73-1.75 2.96-.46 5.99.07 5.89 1.13 5.75 1.72 33.9 12.1 5.79 1.58 5.9 1.06 5.99.28 5.97-.58 5.85-1.28 11.51-3.41 5.84-1.38 5.95-.68 3 .01 8.9 1.26 11.63 2.96 26.35 5.86 8.92 1.14 8.98-.38 17.69-3.3 8.97-.7 11.97.72 26.74 3.7 11.95 1.03 11.99-.23 20.83-2.65 8.98-.54 8.99.42 23.85 2.62 14.99.23 17.96-1.16 74.66-7.17"/><path id="SvgjsPolyline2068" fill="none" stroke="#000" stroke-width="1" d="m1.58 112.66 10.86-10.35 13.63-11.75L40.3 79.54l14.78-10.27 10.26-6.22 10.76-5.31 8.51-2.89 5.89-1.12 2.99-.24 5.99.2 2.97.45 5.8 1.53 5.59 2.16 16.24 7.76 5.67 1.95 2.94.6 2.98.24 5.95-.69 5.67-1.94 11.08-4.6 5.86-1.24h5.99l5.91 1 5.79 1.57 25.62 8.5 5.81 1.49 5.92.99 5.99.3 5.97-.5 5.87-1.21 17.26-5.1 5.91-1.04 5.99-.15 8.88 1.36 14.53 3.74 8.84 1.66 17.52 4.12 8.92 1.17 8.98-.36 17.68-3.35 5.96-.71 5.99-.2 8.99.46 23.85 2.7 11.97.78 11.98-.43 20.82-2.74 8.98-.52 8.99.44 23.85 2.65 14.99.23 20.95-1.45 74.65-7.22"/><path id="SvgjsPolyline2069" fill="none" stroke="#000" stroke-width="1" d="m.09 132.09 12.19-13.25 12.94-12.5 13.62-11.77L53.03 83.5l12.35-8.51 10.42-5.94 8.28-3.51 5.78-1.61 2.95-.5 5.99-.31 2.99.22 5.88 1.16 8.42 3.16 18.78 9.37 5.72 1.79 2.97.44 3 .04 5.88-1.09 13.76-5.95 5.71-1.8 2.96-.5 5.99-.13 5.95.79 26.13 6.74 8.88 1.44 5.99.22 8.93-1.02 5.83-1.44 17.21-5.24 5.92-.95 3-.14 2.99.1 5.94.86 17.43 4.49 11.79 2.19 14.57 3.55 5.9 1.12 5.97.57 8.97-.47 17.67-3.41 5.96-.74 5.99-.27 8.99.3 23.91 2.05 12 .25 11.96-.94 17.83-2.46 8.98-.47 8.98.49 23.85 2.67 8.99.29 9-.22 14.96-1.09 77.63-7.53"/><path id="SvgjsPolyline2070" fill="none" stroke="#000" stroke-width="1" d="m.03 151.53 11.21-14.08 12.07-13.35 12.85-12.59 15.78-13.87 14.24-10.99 10.08-6.51 5.3-2.8 5.53-2.33 5.76-1.65 2.96-.5 5.99-.24 2.98.28 5.85 1.3 8.33 3.39 18.5 9.92 5.64 2.04 5.93.82 2.99-.19 5.79-1.53 13.58-6.35 5.7-1.86 2.95-.55 2.98-.3 5.99.1 5.96.72 17.75 3.01 5.97.56 5.99.05 5.97-.59 5.88-1.19 20.04-6.27 5.87-1.22 2.98-.3 3-.06 5.97.59 5.85 1.31 11.56 3.21 14.75 2.72 17.49 4.25 5.9 1.04 5.98.46 8.97-.63 17.66-3.47 8.95-.95 8.99-.07 26.96 1.44 9-.11 8.97-.75 17.82-2.52 8.97-.7 8.99.26 26.83 2.94 9 .26 8.99-.25 14.96-1.12 77.63-7.57"/><path id="SvgjsPolyline2071" fill="none" stroke="#000" stroke-width="1" d="m1.38 170.9 10.18-14.84 11.13-14.14 14.09-15.57 15-14.69 13.57-11.82 12.08-8.89 5.14-3.09 5.38-2.65 5.64-2.02 2.92-.69 5.96-.61 3 .12 2.97.4 5.78 1.57 8.19 3.71 18.19 10.49 5.55 2.27 5.87 1.14 3-.03 5.85-1.27 5.49-2.4 10.7-5.42 2.79-1.11 5.78-1.59 8.95-.83 20.99.67 8.97-.58 5.91-1.02 5.81-1.5L256.22 80l5.89-1.1 2.99-.23 5.99.29 2.96.49 17.37 4.68 17.71 3.17 17.48 4.31 5.92.97 5.98.36 8.96-.76 14.7-3 8.9-1.3 11.98-.47 21 .56 8.99-.14 8.97-.7 17.82-2.55 8.95-.9 6-.1 5.99.32 17.87 2.18 8.96.78 9 .23 8.99-.27 14.96-1.17 38.79-4 38.83-3.6"/><path id="SvgjsPolyline2072" fill="none" stroke="#000" stroke-width="1" d="m.02 198.14 8.49-15.87 11.33-17.67 12.69-16.73 15.82-18.05 8.34-8.62 8.66-8.3 6.77-5.94 7.09-5.54 4.97-3.35 5.23-2.93 5.53-2.33 5.82-1.44 5.98-.32 2.98.3 5.82 1.43 8.2 3.69 17.81 11.11 5.3 2.82 5.62 2.07 5.93.77 2.99-.24 5.76-1.63 15.95-8.32 8.39-3.22L200.3 98l14.89-1.77 8.87-1.52 8.69-2.32 19.84-6.88 5.84-1.38 2.97-.39 5.99-.05 5.93.89 20.26 5.51 14.82 2.26 23.34 5.56 8.96.76 8.96-.75 17.64-3.58 8.91-1.19 8.99-.49 26.99-.61 8.95-.87 23.77-3.29 5.99-.28 6 .15 26.83 3.01 8.99.4 8.99-.13 14.97-1.05 44.76-4.62 35.84-3.32"/><path id="SvgjsPolyline2073" fill="none" stroke="#000" stroke-width="1" d="m.7 228.15 4.14-11.26 3.53-8.28 5.16-10.83 4.2-7.96 6.06-10.35 4.87-7.57 6.87-9.84 7.24-9.57 9.49-11.61 7.94-9 8.27-8.69 6.5-6.23 6.84-5.84 7.35-5.2 5.27-2.86 5.61-2.11 5.89-1.06 3-.05 2.99.28 5.81 1.44 5.51 2.37 5.22 2.95 14.87 10.14 7.7 4.65 5.5 2.37 2.9.8 5.96.49 2.97-.38 5.71-1.81 5.35-2.7 13.03-7.44 8.23-3.63 25.72-8.2 22.47-8.41 5.79-1.56 5.95-.78 2.99-.03 5.96.7 20.19 5.74 5.89 1.12 8.95.9 5.91 1.02 23.31 5.72 5.94.78 6 .12 8.93-1.01 14.68-3.1 8.87-1.5 8.95-.94 23.94-1.77 26.72-3.84 5.97-.6 5.99-.22 6 .22 20.84 2.53 8.97.75h14.99l14.96-1.1 41.77-4.39 41.82-3.88"/><path id="SvgjsPolyline2074" fill="none" stroke="#000" stroke-width="1" d="M.48 302.54 1 287.56l1.13-11.95 1.77-11.87 3.13-14.66 4.14-14.42 4.99-14.14 4.64-11.07 6.61-13.46 8.97-15.6 9.9-15.03 10.68-14.49 11.42-13.91L78.62 126l8.95-7.98 7.41-5.09 5.4-2.6 2.84-.96 5.91-1 3 .02 2.97.36 5.77 1.63 5.43 2.54 5.12 3.12 19.37 14.17 7.67 4.69 5.51 2.37 2.88.82 5.95.64 5.93-.85 5.63-2.05 5.33-2.75L210.42 121l13.44-6.67 10.91-4.99 11.21-4.25 5.84-1.37 2.98-.37 5.99.05 5.9 1.05 17.12 5.55 5.83 1.4 5.95.77 8.99.3 5.96.7 5.88 1.18 17.38 4.68 5.86 1.29 5.94.81 5.99.22 5.99-.41 5.93-.89 26.45-5.42 38.46-6.42 8.94-1.08 5.99-.3 6 .13 26.8 3.21 8.98.53 9-.05 14.96-1.02 50.71-5.41 38.84-3.54"/><path id="SvgjsPolyline2075" fill="none" stroke="#000" stroke-width="1" d="m12.39 302.41.03-3 .53 14.99 1.16 11.94 2.39 14.81 2.67 11.7 3.32 11.53 5.03 14.12 4.67 11.05 6.59 13.48 8.83 15.68 9.68 15.17 10.46 14.65 9.4 11.68 8.16 8.8 4.39 4.09 4.69 3.74 5.05 3.23 2.68 1.34 5.68 1.9 2.97.46 5.98-.19 2.93-.62 5.62-2.09 5.25-2.89 4.97-3.37 21.12-16.82 7.38-5.14 5.2-2.98 5.49-2.42 5.76-1.66 2.96-.49 5.99-.25 5.96.62 5.86 1.27 17.22 5.24 5.81 1.48 5.93.95 5.99.11 2.98-.32 5.81-1.45 5.54-2.3 16.05-8.14 5.68-1.91 2.93-.62 5.97-.53 5.99.35 5.91 1.03 14.57 3.54 5.96.61 8.99-.34 5.92-.96 5.83-1.38 23.01-6.83 14.63-3.27 8.91-1.31 29.81-3.3 32.5-5.69 5.96-.71 8.99-.51 8.99.13 8.98.65 41.66 5.3 20.87 2.34 20.91 1.9 38.89 2.93"/><path id="SvgjsPolyline2076" fill="none" stroke="#000" stroke-width="1" d="m12.48 300.36.49-11.99 1.39-14.94 1.85-11.85 3.25-14.64 3.33-11.53 5.04-14.12 4.69-11.05 6.59-13.47 8.84-15.68 9.69-15.16 10.47-14.64 9.41-11.68 8.18-8.78 4.41-4.06 4.71-3.72 5.08-3.18 2.7-1.31 5.71-1.81 2.97-.4 5.98.3 2.92.67 5.59 2.17 5.23 2.94 4.94 3.39 18.72 15.02 9.77 6.96 5.21 2.97 5.49 2.41 5.76 1.65 2.96.5 5.99.28 5.97-.57 5.87-1.19 17.33-4.88 5.86-1.28 5.96-.67 5.99.21 2.95.5 5.73 1.76 5.45 2.51 13.25 7.02 5.6 2.14 5.86 1.29 5.98.31 5.97-.54 5.89-1.17 11.58-3.12 5.92-.97 5.99-.3 5.99.36 5.92.94 5.84 1.37 23 6.85 14.61 3.38 8.89 1.42 29.75 3.82 29.51 5.37 5.95.77 8.98.63 9-.03 8.98-.57 62.52-7.67 23.9-2.19 38.9-2.89"/><path id="SvgjsPolyline2077" fill="none" stroke="#000" stroke-width="1" d="m1.67 301.16.61-14.99 1.22-11.94 1.86-11.85 3.24-14.64 4.26-14.38 4.13-11.27 4.72-11.03 6.69-13.42 9.03-15.57 9.92-15.01 10.68-14.49 11.44-13.89 8.19-8.77 8.92-8.02 7.43-5.07 5.43-2.54 2.86-.89 5.93-.84 2.99.11 5.87 1.18 5.57 2.22 5.24 2.92 4.96 3.37 18.83 14.88 7.36 5.17 7.97 4.16 5.75 1.69 2.97.38 5.98-.27 2.94-.61 5.67-1.94 10.75-5.33 18.39-10.14 10.81-5.2 8.44-3.11 5.84-1.35 2.98-.34 5.99.11 5.88 1.16 16.85 6.31 8.68 2.35 5.95.69 6-.05 8.97-.62 8.97.62 8.82 1.8 23.14 6.34 8.89 1.39 5.99.31 5.99-.18 8.94-1 35.44-6.36 14.9-1.69 8.99-.09 5.99.42 20.79 2.94 8.95.9 5.99.26 9-.13 14.95-1.16 50.68-5.72 44.82-4"/><path id="SvgjsPolyline2078" fill="none" stroke="#000" stroke-width="1" d="m.05 282.6 1.38-11.91 2.02-11.83 2.67-11.7 3.32-11.53 3.95-11.33 4.58-11.09 5.16-10.83 7.19-13.17 7.89-12.75 10.25-14.79 10.98-14.26L69.18 136l8.31-8.65 9.04-7.88 7.54-4.9 5.49-2.4 5.85-1.3 2.99-.16 5.95.71 5.7 1.85 5.36 2.68 5.08 3.2 19.02 14.63 7.38 5.14 5.26 2.88 2.76 1.16 5.81 1.49 2.99.22 5.94-.69 5.69-1.9 8.01-4.08 20.76-12.04 13.39-6.75 11.12-4.49 5.81-1.48 2.97-.43 5.99-.02 5.9 1.05 16.98 5.98 8.72 2.18 5.96.61 12-.12 5.97.53 8.83 1.72 23.18 6.2 5.93.93 5.98.37 6-.21 8.91-1.18 41.17-8.31 11.84-1.99 8.94-.98 8.99-.28 6 .19 26.78 3.38 8.98.58 9-.02 14.96-1.02 50.7-5.57 44.81-4.05"/><path id="SvgjsPolyline2079" fill="none" stroke="#000" stroke-width="1" d="m24.39 302.27.03-3 .54 14.99 1.19 11.94L28.6 341l2.72 11.68 3.35 11.53 3.94 11.33 5.7 13.87 5.11 10.86 6.97 13.28 9.17 15.49 8.28 12.5 9.01 11.99 7.98 8.96 6.69 6 4.96 3.38 2.65 1.4 5.65 1.97 5.96.51 5.9-1.02 2.83-.99 5.37-2.67 7.42-5.08 6.94-5.73 20.07-18.06 18.3-15.53 8.87-8.08 8.12-8.83 12.79-16.65 5.89-6.79 4.58-3.88 2.56-1.55 2.75-1.19 2.9-.76 2.98-.34 5.97.42 5.82 1.45 5.63 2.07 13.45 6.62 25.97 15.03 13.23 7.06 5.53 2.32 5.71 1.82 8.85 1.56 8.99.02 8.91-1.26 11.65-2.87 34.59-9.95 17.48-4.32 17.69-3.25 14.95-1.17 12 .25 11.95 1.08 44.55 6.27 23.85 2.68 26.91 2.24 38.92 2.53"/><path id="SvgjsPolyline2080" fill="none" stroke="#000" stroke-width="1" d="m.26 297.23.5 14.99 1.34 14.94 2.29 14.82 2.57 11.72 4.11 14.42 4.02 11.31 4.63 11.07 6.6 13.47 8.96 15.6 9.91 15.03 10.69 14.48 11.42 13.91 10.22 10.97 8.89 8.05 7.34 5.2 5.33 2.74 2.81 1.05 5.86 1.24 3 .12 5.93-.78 5.67-1.95 7.89-4.31 19.43-14.08 7.65-4.74 5.47-2.44 2.88-.86 5.94-.73 5.93.78 5.64 2.01 5.33 2.75 18.11 10.64 13.43 6.68 13.64 6.23 8.33 3.41 5.7 1.87 5.87 1.22 5.98.27 5.95-.75 5.79-1.56 11.38-3.82 5.8-1.53 5.92-.95 8.98-.42 5.97-.65 8.81-1.83 20.32-5.25 5.94-.85 5.99-.24 8.96.78 29.42 5.87 38.5 6.21 11.9 1.46 6 .22 5.99-.2 29.8-3.43 14.99-.11 14.96 1.09 44.74 4.8 41.82 3.86"/><path id="SvgjsPolyline2081" fill="none" stroke="#000" stroke-width="1" d="m8.5 297.42.35 11.99 1.39 14.93 1.85 11.86 3.26 14.64 3.33 11.52 5.06 14.12 4.71 11.04 6.62 13.45 8.9 15.65 9.75 15.13 12.33 16.99 9.55 11.56 8.29 8.67 4.48 3.99 4.79 3.61 5.17 3.03 2.75 1.2 5.79 1.53 2.99.25 5.96-.58 5.71-1.8 5.37-2.67 5.05-3.24 4.81-3.59 23.01-19.23 7.29-5.29 5.09-3.16 8.05-4.02 5.61-2.12 23.12-6.44 8.31-3.43 7.6-4.8 15.94-13.66 4.89-3.47 5.39-2.61 5.84-1.32 5.99.05 2.96.45 5.81 1.51 11.15 4.42 18.93 9.08 5.53 2.32 8.63 2.53 8.92 1.1 8.98-.42 8.86-1.6 40.35-11.61 29.12-7.2 14.75-2.71 11.94-1.16 9-.15 11.98.66 14.9 1.75 35.64 5.05 17.88 2.05 29.89 2.6 38.91 2.6"/><path id="SvgjsPolyline2082" fill="none" stroke="#000" stroke-width="1" d="m1.3 299.31.65 14.99 1.24 11.93 2.45 14.8 2.69 11.69 3.35 11.52 5.08 14.11 6.02 13.73 5.44 10.7 9.05 15.56 8.24 12.53 12.42 16.93 11.46 13.87 8.21 8.76 8.93 8.01 7.44 5.04 5.43 2.53 2.87.89 5.93.82 2.99-.11 5.87-1.2 5.57-2.22 5.23-2.93 4.97-3.36 18.85-14.85 7.38-5.14 8.02-4.07 5.78-1.58 2.98-.31 5.97.44 2.92.69 5.63 2.05 8.07 3.99 18.32 10.25 10.7 5.44 11.13 4.45 5.82 1.46 2.97.42 5.99.07 5.91-1.01 5.71-1.81 14.03-5.31 5.81-1.48 8.95-.87 11.98.6 8.96-.69 8.81-1.84 17.31-4.91 5.84-1.37 5.92-.98 8.98-.52 5.99.29 8.93 1.13 32.42 6.15 8.89 1.42 8.94.97 9 .26 5.99-.31 26.76-3.56 8.98-.57 8.99.05 14.96 1.08 50.68 5.69 47.81 4.27"/><path id="SvgjsPolyline2083" fill="none" stroke="#000" stroke-width="1" d="m6.95 298.74.64 14.99 1.25 11.93 1.91 11.85 3.33 14.62 3.39 11.51 5.13 14.09 6.03 13.73 5.43 10.7 8.97 15.6 9.84 15.07 10.59 14.56 11.44 13.89 8.32 8.64 4.49 3.98 4.78 3.62 5.17 3.04 2.74 1.22 5.77 1.59 2.99.29 5.96-.49 5.74-1.73 5.39-2.62 5.07-3.2 4.84-3.56 18.45-15.34 7.15-5.47 7.58-4.84 5.36-2.68 8.54-2.82 5.92-.96 5.99-.3 17.99.49 8.96-.82 5.85-1.3 2.83-.99 5.41-2.58 14.97-9.98 5.19-3 5.56-2.24 5.88-1.16 5.99.01 8.84 1.64 8.55 2.79 14 5.39 5.77 1.61 8.91 1.22 6-.04 5.96-.67 8.8-1.87 34.55-10.1 43.85-10.07 8.84-1.7 8.91-1.26 8.98-.66 5.99-.08 9 .36 8.96.82 41.61 5.66 23.85 2.68 23.91 2.06 38.91 2.69"/><path id="SvgjsPolyline2084" fill="none" stroke="#000" stroke-width="1" d="m3.77 299.55.67 14.99 1.27 11.93 2.51 14.78 2.75 11.68 3.39 11.51 5.14 14.09 4.78 11.01 6.74 13.4 7.48 13 9.79 15.1 10.55 14.58 11.32 13.99 8.12 8.83 8.86 8.09 7.4 5.11 5.42 2.56 2.86.9 5.92.84 3-.11 5.87-1.2 5.56-2.24 5.22-2.95 4.95-3.39 21.07-16.87 7.38-5.15 7.98-4.13 5.73-1.77 2.96-.47 5.99-.03 2.97.42 5.81 1.51 5.61 2.12 19.07 8.79 5.56 2.26 8.61 2.57 5.94.77 6-.04 5.93-.86 5.71-1.82 16.48-7.23 5.74-1.74 5.92-.94 8.99.13 14.82 2.22 8.99-.1 5.94-.83 5.86-1.3 25.97-7.36 11.83-2 11.98-.61 29.97 1.2 11.99-.19 11.94-1.25 20.72-3.38 11.95-1.07 9-.05 11.97.77 56.6 6.68 56.8 4.85"/><path id="SvgjsPolyline2085" fill="none" stroke="#000" stroke-width="1" d="m24.49 301.19.45-11.99 1.39-14.94 1.85-11.85 2.52-11.73 3.17-11.57 4.81-14.21 5.67-13.88 5.09-10.87 6.95-13.29 9.14-15.51 8.26-12.52 8.99-12 7.95-8.98 6.67-6.03 4.93-3.41 2.65-1.42 5.63-2.02 2.96-.49 3-.09 2.98.31 5.76 1.63 2.74 1.23 5.19 3 7.24 5.34 24.64 21.94 20.48 17.6 6.56 6.16 8.08 8.87 12.75 16.68 5.89 6.8 4.57 3.87 2.57 1.55 2.75 1.18 2.9.76 2.98.34 5.97-.43 5.82-1.45 5.63-2.07 13.46-6.61 28.56-16.52 10.61-5.61 5.52-2.35 5.7-1.87 8.84-1.63 8.99-.09 8.91 1.21 11.66 2.83 34.59 9.96 17.47 4.33 17.69 3.29 8.95.93 5.99.28 12-.21 11.95-1.05 44.56-6.27 26.83-2.98 26.92-2.18 35.92-2.32"/><path id="SvgjsPolyline2086" fill="none" stroke="#000" stroke-width="1" d="m8.61 302.29.57-14.99 1.21-11.94 1.87-11.85 2.54-11.72 4.09-14.43 3.99-11.32 4.58-11.09 6.48-13.52 7.23-13.15 9.49-15.29 10.27-14.78L72 144.02l7.98-8.96 8.75-8.2 7.35-5.17 5.42-2.55 2.87-.89 5.94-.75 2.99.16 5.84 1.32 5.52 2.34 5.18 3.03 4.9 3.46 23.03 19.22 7.16 5.44 5 3.32 7.89 4.32 5.51 2.36 5.68 1.96 17.29 4.97 5.64 2.05 5.4 2.61 7.46 5.01 13.49 11.91 4.73 3.7 5.18 3.02 5.68 1.86 5.97.45 2.99-.26 5.87-1.24 5.69-1.9 5.55-2.28 21.62-10.41 5.52-2.35 8.61-2.59 8.91-1.17 8.98.35 8.86 1.55 8.71 2.27 31.66 9.32 17.43 4.49 14.62 3.34 14.79 2.47 11.96.89 9-.06 11.97-.86 47.55-6.52 23.86-2.64 29.89-2.45 35.93-2.35"/><path id="SvgjsPolyline2087" fill="none" stroke="#000" stroke-width="1" d="m7.06 301.07.64-14.98 1.27-11.93 1.92-11.85 3.34-14.62 4.36-14.35 4.18-11.24 4.77-11.01 6.71-13.42 8.99-15.59 9.84-15.07 10.6-14.55 11.45-13.88 6.18-6.54 4.37-4.11 7.08-5.54 5.19-3.01 2.75-1.19 5.79-1.53 5.98-.15 2.97.45 5.72 1.79 5.37 2.65 5.06 3.23 4.82 3.57 18.45 15.35 7.15 5.46 7.58 4.84 5.37 2.67 5.63 2.07 8.82 1.76 5.98.36 18-.1 8.92 1.15 2.93.65 5.66 1.97 5.32 2.76 14.86 10.15 5.21 2.96 5.6 2.14 2.93.65 5.97.41 3-.21 5.9-1.04 8.61-2.62 13.95-5.51 5.68-1.92 8.81-1.8 8.98-.28 5.97.62 8.81 1.81 37.45 10.87 40.92 9.43 8.84 1.69 8.92 1.23 8.97.64 6 .06 8.99-.39 8.96-.83 44.59-6.05 20.88-2.3 23.91-2.06 38.91-2.68"/><path id="SvgjsPolyline2088" fill="none" stroke="#000" stroke-width="1" d="m169.79 150.35 5.71 1.82 5.94.73 3-.09 5.92-.97 8.52-2.85 19.18-8.55 8.44-3.12 5.83-1.43 8.96-.72 5.97.5 5.79 1.55 19.25 8.37 5.76 1.66 2.95.53 2.98.31 6-.01 17.79-2.62 8.99.05 8.89 1.39 28.88 8.09 11.81 2.1 11.97.77 29.99-.69 11.99.41 8.94.99 23.69 3.83 8.96.84 8.99.17 11.98-.64 56.61-6.7 23.89-2.26 35.89-2.86"/><path id="SvgjsPolyline2089" fill="none" stroke="#000" stroke-width="1" d="m2.8 301.83.38-11.99 1.39-14.93 2.39-14.8 2.66-11.71 3.31-11.53 5.03-14.13 5.97-13.75 5.39-10.72 7.42-13.04 9.74-15.13 12.34-16.99 11.4-13.93 8.18-8.77 8.93-8.01 7.46-5.02 5.46-2.46 2.88-.84 2.95-.53 5.99-.01 5.85 1.31 5.53 2.31 5.2 2.99 4.93 3.41 18.75 14.97 9.88 6.81 5.34 2.72 2.8 1.08 5.84 1.35 2.99.21 5.96-.55 2.92-.69 5.66-1.98 8.14-3.83 15.99-8.27 11.02-4.74 8.68-2.33 5.97-.45 3 .2 5.86 1.24 5.64 2.03 11.02 4.76 8.58 2.67 5.93.87 3 .13 5.99-.26 11.92-1.31 8.98.43 8.85 1.64 26 7.25 5.89 1.13 8.95.88 11.99-.24 32.78-3.79 14.98-.77 11.97.65 20.77 3.14 8.94 1.02 8.98.41 9-.21 14.94-1.29 53.65-6.19 47.82-4.11"/><path id="SvgjsPolyline2090" fill="none" stroke="#000" stroke-width="1" d="m36.39 302.14.03-3 .35 12 1 11.95 1.69 11.88 3.04 14.69 3.13 11.58 3.7 11.41 5.36 14.01 4.81 10.99 6.61 13.47 7.23 13.14L81.26 437l6.95 9.77 5.75 6.93 6.42 6.3 4.8 3.59 2.6 1.5 5.59 2.14 2.95.52 2.99.09 2.99-.32 5.73-1.73 2.71-1.27 5.14-3.1 7.11-5.5 6.67-6.04 8.52-8.45 16.28-17.63 11.24-14.06 15.53-22.09 5.86-6.81 4.61-3.83 2.59-1.52 2.75-1.18 5.86-1.21 5.99.14 5.9 1.08 5.74 1.72 5.6 2.16 8.16 3.8 7.94 4.23 28.43 16.76 13.16 7.2 5.48 2.43 5.66 1.97 8.8 1.83 8.99.3 8.93-1.06 11.68-2.73 31.7-9.17 20.36-5.15 17.68-3.35 14.93-1.3 12 .15 11.95 1.01 44.57 6.26 23.84 2.72 26.9 2.27 41.91 2.73"/><path id="SvgjsPolyline2091" fill="none" stroke="#000" stroke-width="1" d="m10.38 298.13.6 14.99 1.24 11.93 1.91 11.85 3.33 14.62 4.34 14.35 4.17 11.25 4.75 11.02 6.65 13.44 8.91 15.64 9.74 15.14 10.52 14.6 9.44 11.65 8.22 8.74 4.44 4.04 4.75 3.66 5.14 3.09 2.73 1.23 5.77 1.6 5.98.21 5.87-1.18 5.55-2.26 7.7-4.65 7.14-5.47 20.49-17.59 9.54-7.27 10.11-6.45 18.37-10.17 7.37-5.16 8.82-8.13 16.33-17.58 4.69-3.73 2.59-1.51 2.75-1.19 2.89-.8 2.97-.38 5.98.34 2.94.6 5.72 1.79 10.95 4.9 26.37 14.29 8.08 3.96 5.6 2.15 5.78 1.62 8.91 1.19 8.98-.32 8.87-1.51 8.72-2.22 31.68-9.24 26.21-6.48 14.77-2.58 11.95-1.04 12 .04 11.96.93 47.54 6.6 26.84 2.92 26.91 2.16 35.93 2.32"/><path id="SvgjsPolyline2092" fill="none" stroke="#000" stroke-width="1" d="m.66 374.83 4.12 11.26 3.52 8.29 3.86 8.13 5.65 10.58L24 423.37l4.96 7.51 6.98 9.76 7.33 9.5 7.66 9.24 9.98 11.19 8.38 8.59 6.58 6.14 6.96 5.71 7.48 4.99 5.37 2.66 5.71 1.83 5.95.7 2.99-.14 2.97-.45 5.73-1.73 8.04-4.04 17.44-11.68 5.16-3.05 5.47-2.47 2.87-.86 5.95-.67 2.98.29 5.75 1.68 5.38 2.64 13.04 7.4 8.25 3.59 25.87 7.71 25.37 9.23 5.83 1.4 2.97.4 6 .05 2.97-.35 5.86-1.29 17.29-5 17.81-2.49 23.3-5.71 5.94-.85 5.99-.21 8.95.92 14.68 3.07 8.87 1.52 8.95.93 26.93 1.86 29.71 4.13 5.99.32 6-.12 26.82-3.05 8.99-.46 8.99.1 17.95 1.31 44.76 4.68 35.85 3.3"/><path id="SvgjsPolyline2093" fill="none" stroke="#000" stroke-width="1" d="m.26 325.16 1.79 11.86 2.43 11.75 3.08 11.6 3.72 11.4 4.36 11.18 4.95 10.93 5.51 10.66 6 10.39 8.1 12.63 10.46 14.64 11.19 14.1 9.93 11.24 8.55 8.42 6.94 5.71 7.65 4.74 5.57 2.2 5.89 1.07 3 .02 5.91-.93 5.64-2.03 5.31-2.79 5.03-3.27 19.03-14.62 7.48-4.99 5.36-2.69 2.82-1.02 5.89-1.08 5.97.43 5.74 1.74 8.05 4 20.73 12.09 13.36 6.82 8.22 3.66 5.64 2.05 5.81 1.47 2.97.4h5.99l5.9-1.08 17-5.9 8.74-2.11 5.97-.56 11.99-.02 5.96-.68 8.8-1.87 20.27-5.48 8.9-1.32 5.99-.16 5.98.41 5.94.87 44.12 8.86 11.83 2 8.94 1.01 5.99.24 9-.32 29.77-3.61 14.99-.28 14.96 1.03 47.72 5.24 44.81 4.09"/><path id="SvgjsPolyline2094" fill="none" stroke="#000" stroke-width="1" d="m2.56 298.6.4 11.99 1.41 14.93 1.86 11.85 3.25 14.64 3.32 11.53 5.06 14.12 4.72 11.03 6.68 13.43 9.01 15.58 9.9 15.03 12.5 16.87 9.58 11.54 8.2 8.76 8.95 7.99 7.48 4.98 5.47 2.44 2.88.83 5.95.66 2.99-.19 5.84-1.33 5.52-2.33 5.2-3 4.93-3.42 18.76-14.96 9.91-6.75 5.37-2.67 2.82-1.03 5.86-1.24 2.99-.14 5.95.69 8.53 2.84 24.02 12.31 10.98 4.84 8.64 2.49 5.96.6 3-.13 5.89-1.08 5.67-1.94 13.85-5.76 8.7-2.24 8.97-.53 14.93 1.37 8.98-.5 8.83-1.7 26.02-7.2 5.9-1.06 8.97-.75 11.98.45 32.72 4.29 14.96 1.04 6-.04 8.97-.71 26.72-3.81 8.99-.48 8.99.14 14.95 1.21 53.65 6.16 47.82 4.15"/><path id="SvgjsPolyline2095" fill="none" stroke="#000" stroke-width="1" d="m36.64 296 .71-11.98 1.29-11.93 1.96-11.83 2.6-11.72 3.22-11.56 4.81-14.2 4.42-11.16 6.16-13.67 6.81-13.37 7.44-13.02 8.16-12.58 7.26-9.55 6.09-6.62 6.93-5.73 5.25-2.89 5.75-1.65 2.99-.22 2.99.2 2.94.59 5.59 2.14 7.65 4.73 6.98 5.67 6.6 6.12 8.46 8.51 16.15 17.75 9.3 11.76 15.52 22.09 5.8 6.87 4.54 3.92 2.54 1.59 5.59 2.13 2.96.5 5.99-.01 5.91-.99 5.77-1.66 5.61-2.11 8.18-3.74 7.96-4.21 28.43-16.75 13.13-7.24 5.46-2.49 5.64-2.04 5.81-1.48 5.95-.8 8.99.06 8.89 1.32 11.64 2.91 31.71 9.16 17.45 4.39 17.67 3.41 14.93 1.39 11.99-.08 11.96-.96 44.57-6.24 29.81-3.32 26.91-2.15 35.93-2.31"/><path id="SvgjsPolyline2096" fill="none" stroke="#000" stroke-width="1" d="m10.46 302.11.59-14.99 1.22-11.93 1.9-11.85 3.32-14.63 4.32-14.35 4.16-11.26 4.73-11.03 6.65-13.44 8.89-15.65 9.73-15.14 10.5-14.61 9.44-11.66 8.2-8.75 4.44-4.05 4.74-3.67 5.12-3.11 2.73-1.25 5.76-1.63 5.98-.24 5.88 1.14 5.56 2.24 7.7 4.63 7.15 5.47 20.48 17.59 9.52 7.3 7.52 4.95 18.3 10.29 7.52 4.93 4.66 3.78 6.49 6.24 12.05 13.36 4.22 4.27 4.68 3.74 2.59 1.52 2.75 1.2 2.88.8 2.98.38 5.97-.34 8.66-2.4 10.95-4.91 26.36-14.32 8.06-3.99 5.58-2.19 5.77-1.67 8.89-1.28 8.99.25 5.94.86 5.86 1.26 40.38 11.54 14.53 3.72 11.71 2.61 14.81 2.37 11.97.81 11.99-.26 11.95-1.08 41.59-5.87 26.83-3.05 26.9-2.23 38.92-2.54"/><path id="SvgjsPolyline2097" fill="none" stroke="#000" stroke-width="1" d="m48.34 299.19.05 3 .26-11.99.89-11.97 1.56-11.9 2.83-14.73 2.92-11.63 3.48-11.49 3.97-11.32 5.61-13.91 6.29-13.61 5.54-10.65 6.05-10.36 6.75-9.92 5.72-6.94 6.58-6.12 5.06-3.21 5.65-1.97 2.97-.37 3 .09 5.82 1.41 2.75 1.19 5.19 3.01 7.12 5.49 10.77 10.43 11.92 13.48 9.24 11.82 17.32 24.49 5.75 6.92 4.4 4.06 5.05 3.23 2.76 1.16 5.84 1.32 6 .11 5.94-.79 5.82-1.44 8.48-3.01 8.2-3.71 7.98-4.16 33.62-19.76 10.56-5.69 5.49-2.42 5.67-1.95 8.81-1.79 8.99-.25 8.93 1.08 11.67 2.75 28.81 8.38 23.25 5.93 17.69 3.32 5.96.71 8.98.56 11.99-.17 11.96-1.02 44.56-6.27 26.83-3 26.91-2.19 38.92-2.52"/><path id="SvgjsPolyline2098" fill="none" stroke="#000" stroke-width="1" d="m48.28 298.14.41 11.99 1.32 14.94 1.74 11.88 2.35 11.76 2.94 11.63 3.49 11.49 3.98 11.32 5.63 13.9 4.98 10.91 6.87 13.34 6.07 10.35 6.77 9.9 5.75 6.92 6.63 6.06 5.1 3.14 2.78 1.13 2.91.74 2.98.3 2.99-.15 5.79-1.51 2.74-1.23 5.16-3.06 7.08-5.54 10.75-10.45 11.89-13.51 10.99-14.26 15.55-22.06 5.8-6.88 4.46-4.01 5.1-3.13 2.79-1.1 5.86-1.21 6-.02 5.93.85 5.81 1.49 8.47 3.05 8.18 3.74 7.97 4.18 31.02 18.27 13.18 7.16 5.5 2.38 5.69 1.91 8.82 1.71 8.99.18 8.92-1.15 11.67-2.79 34.59-9.95 17.47-4.34 17.7-3.28 8.95-.93 5.99-.28 11.99.2 11.96 1.06 44.55 6.27 23.85 2.7 26.91 2.25 41.91 2.72"/><path id="SvgjsPolyline2099" fill="none" stroke="#000" stroke-width="1" d="m257.97 297.74.3 8.99.83 8.96 1.41 8.89 1.31 5.85 2.58 8.62 2.19 5.59 4.01 8.05 3.18 5.09 3.54 4.83 5.95 6.76 4.32 4.16 6.92 5.74 7.35 5.19 7.68 4.7 8.08 3.96 5.63 2.04 5.82 1.46 5.94.82 6 .19 5.99-.32 11.86-1.76 29.31-6.4 14.75-2.73 17.87-2.12 14.99-.36 8.99.46 11.93 1.22 41.55 6.16 26.81 3.19 29.89 2.48 44.92 2.76"/><path id="SvgjsPolyline2100" fill="none" stroke="#000" stroke-width="1" d="m.03 405.04 8.46 15.88 6.37 10.17 5.12 7.4 12.89 16.57 13.95 15.7 8.36 8.6 8.67 8.29 6.77 5.94 7.06 5.57 4.94 3.4 5.19 3.02 5.47 2.46 5.76 1.66 2.96.44 5.99-.02 2.97-.45 5.75-1.69 8.09-3.91 15.27-9.53 5.26-2.88 5.57-2.2 5.91-.99 2.99.12 5.81 1.44 5.45 2.5 10.56 5.7 8.38 3.23 8.82 1.77 17.91 1.75 8.87 1.51 8.68 2.37 19.87 6.79 5.87 1.21 2.99.28 3 .04 5.95-.65 20.27-5.46 14.81-2.31 23.34-5.58 8.94-.93 8.97.6 17.65 3.54 8.91 1.25 8.98.52 21 .15 8.99.43 32.73 4.13 5.99.19 6-.25 26.82-3.02 15-.22 17.95 1.24 41.78 4.33 38.83 3.59"/><path id="SvgjsPolyline2101" fill="none" stroke="#000" stroke-width="1" d="m248.28 301.46.89-17.97 1.1-8.93 1.65-8.85 2.35-8.68 2.04-5.64 3.86-8.13 3.12-5.12 3.51-4.86 5.91-6.79 6.5-6.22 6.94-5.72 9.77-6.97 7.6-4.82 7.94-4.23 8.37-3.3 5.81-1.49 5.94-.82 5.99-.15 5.98.44 11.81 2.13 34.81 9.17 17.56 3.91 14.84 2.21 14.97.75 9-.29 11.95-1.07 47.51-6.8 20.86-2.38 29.9-2.51 41.91-2.64"/><path id="SvgjsPolyline2102" fill="none" stroke="#000" stroke-width="1" d="m60.31 302.07.03-3 .31 11.99.9 11.97 1.52 11.9 2.1 11.81 2.66 11.7 3.18 11.57 3.67 11.43 5.24 14.05 4.72 11.03 5.24 10.8 5.87 10.46 4.99 7.49 5.71 6.95 4.39 4.08 5.02 3.27 2.76 1.16 2.91.74 2.98.27 2.99-.22 5.74-1.68 5.29-2.81 7.19-5.41 8.66-8.31 9.9-11.26 9.2-11.84 14.07-19.45 7.71-9.18 4.44-4.03 5.02-3.26 5.58-2.19 5.9-.99 6 .04 8.87 1.47 5.76 1.67 8.41 3.21 8.14 3.83 7.94 4.24 28.4 16.8 13.12 7.26 5.45 2.51 5.63 2.07 5.8 1.51 5.94.84 8.99-.02 5.95-.74 5.89-1.17 43.31-12.19 23.35-5.52 14.82-2.3 11.97-.74 9 .14 11.96.95 44.57 6.24 26.82 3.04 26.91 2.23 38.92 2.52"/><path id="SvgjsPolyline2103" fill="none" stroke="#000" stroke-width="1" d="m60.29 300.08.47-11.99.99-11.96 1.55-11.89 2.15-11.81 2.69-11.69 3.22-11.56 3.69-11.42 5.28-14.04 4.75-11.01 5.28-10.78 5.93-10.43 5.05-7.45 5.8-6.87 4.48-3.98 5.13-3.1 2.81-1.04 2.93-.6 3-.1 2.97.36 5.68 1.9 5.22 2.95 7.11 5.51 8.58 8.37 7.95 9 9.28 11.78 15.87 21.84 3.75 4.68 4.06 4.41 4.54 3.92 5.13 3.1 2.77 1.14 5.83 1.37 5.99.27 5.96-.59 8.76-2.06 8.47-3.04 8.19-3.71 7.98-4.17 33.62-19.76 10.55-5.71 5.48-2.45 5.66-1.98 8.8-1.85 8.98-.31 8.93 1.04 11.69 2.72 37.49 10.73 17.49 4.25 14.75 2.69 14.94 1.31 11.99-.14 11.96-1.01 44.56-6.26 26.83-3.01 26.91-2.2 38.92-2.52"/><path id="SvgjsPolyline2104" fill="none" stroke="#000" stroke-width="1" d="m234.72 298.95.3 11.99.58 8.98.95 8.95 1.48 8.88 2.22 8.71 2.05 5.64 2.61 5.4 3.17 5.09 5.58 7.06 6.27 6.45 6.84 5.85 9.57 7.23 12.43 8.4 10.26 6.22 7.96 4.19 8.36 3.32 5.8 1.53 5.93.87 5.99.18 8.96-.86 11.72-2.55 31.74-9.02 20.38-5.06 8.82-1.77 8.9-1.36 14.95-1.06 9 .15 11.96.94 47.54 6.67 26.83 2.97 23.92 1.95 41.91 2.7"/><path id="SvgjsPolyline2105" fill="none" stroke="#000" stroke-width="1" d="m269.79 297.91.07 2.99.43-8.98.68-5.96 1.74-8.83 1.65-5.77 3.21-8.4 2.66-5.38 3.07-5.15 3.47-4.9 3.84-4.6 6.38-6.34 6.97-5.69 7.26-5.33 7.58-4.84 5.28-2.85 5.49-2.42 5.69-1.89 8.83-1.7 5.99-.38 5.99.12 11.93 1.28 26.63 4.44 11.9 1.59 11.96.96 14.99.05 8.98-.56 11.93-1.31 44.5-6.7 23.83-2.81 32.89-2.7 41.92-2.5"/><path id="SvgjsPolyline2106" fill="none" stroke="#000" stroke-width="1" d="m269.49 299.56 1.05 11.95 1.58 8.85 1.48 5.82 1.87 5.7 3.57 8.25 2.89 5.26 3.3 5.01 5.66 6.99 4.21 4.28 4.5 3.97 7.09 5.53 7.37 5.17 5.11 3.15 8.02 4.07 5.6 2.13 5.8 1.55 5.92.93 5.99.35 5.99-.16 11.93-1.31 23.67-3.98 14.86-2.04 11.96-.93 14.99-.02 8.98.59 11.93 1.33 41.52 6.28 23.83 2.91 26.89 2.36 50.91 3.13"/><path id="SvgjsPolyline2107" fill="none" stroke="#000" stroke-width="1" d="m246.5 299.44.92 17.97 1.46 11.91 1.64 8.85 1.47 5.81 2.92 8.51 2.49 5.46 4.6 7.73 3.6 4.79 6.04 6.67 6.62 6.1 9.42 7.43 9.94 6.71 7.77 4.55 8.13 3.84 5.66 1.97 5.84 1.38 5.96.7 5.99.02 5.98-.55 11.77-2.31 34.73-9.46 17.53-4.09 14.8-2.42 14.96-1 11.99.33 11.94 1.12 44.55 6.39 23.84 2.72 26.91 2.25 41.91 2.68"/><path id="SvgjsPolyline2108" fill="none" stroke="#000" stroke-width="1" d="m1.44 432.42 10.2 14.82 11.31 14 14.27 15.4 15.16 14.53 13.72 11.65 7.22 5.37 5.01 3.29 5.22 2.97 5.46 2.47 5.72 1.79 2.95.56 5.98.3 2.99-.27 5.84-1.33 8.29-3.48 15.58-9.01 5.36-2.69 5.67-1.95 2.95-.51 3-.11 2.98.32 5.73 1.73 13.44 6.65 5.63 2.06 2.91.71 2.96.48 5.99.36 20.96-1.14 6 .04 5.98.53 5.9 1.07 5.79 1.55 17.08 5.67 8.83 1.69h5.99l5.93-.91 17.37-4.7 14.78-2.53 20.42-4.9 8.93-.98 8.98.55 17.65 3.5 8.93 1.11 8.99.28 20.99-.66 12 .14 8.96.76 17.82 2.56 8.96.79 6 .01 5.98-.4 17.87-2.2 8.97-.7 9-.15 8.99.33 14.95 1.21 38.79 4 38.84 3.59"/><path id="SvgjsPolyline2109" fill="none" stroke="#000" stroke-width="1" d="m236.43 300.71.34-12 .78-11.97 1-8.94 1.53-8.87 2.3-8.7 2.1-5.62 2.66-5.37 3.25-5.04 3.77-4.67 6.37-6.35 9.26-7.62 9.71-7.06 12.54-8.22 10.37-6.04 8.12-3.86 5.65-2.02 5.82-1.43 5.95-.77 6-.07 8.94.97 11.7 2.64 31.74 9.02 20.39 5.03 8.83 1.73 8.9 1.32 14.97.97 11.99-.38 11.94-1.16 41.57-5.95 26.83-3.05 26.91-2.21 38.92-2.51"/><path id="SvgjsPolyline2110" fill="none" stroke="#000" stroke-width="1" d="m258.86 301.92.33-8.99.87-8.95 1.48-8.88 2.17-8.73 1.88-5.7 3.33-8.36 4.11-8 3.23-5.05 3.6-4.8 6.01-6.7 4.36-4.12 6.97-5.69 7.38-5.14 7.71-4.64 8.12-3.87 5.67-1.96 5.84-1.35 5.96-.68 6-.06 5.98.48 11.82 2.03 29.21 6.85 14.71 2.91 14.87 1.92 14.99.52 8.99-.37 11.94-1.15 44.53-6.52 26.82-3.1 26.9-2.22 44.92-2.78"/><path id="SvgjsPolyline2111" fill="none" stroke="#000" stroke-width="1" d="m72.27 299.12.04 3 .23-12 .76-11.97 1.33-11.93 1.87-11.85 4.52-20.51 6.02-20.11 4.12-11.27 4.68-11.05 3.96-8.08 4.46-7.81 5.18-7.35 4.03-4.45 4.67-3.75 2.62-1.45 2.81-1.05 2.94-.57 3-.04 2.96.46 2.87.88 5.36 2.67 7.23 5.34 6.55 6.17 8.05 8.9 25.93 33.03 6.34 6.37 4.8 3.59 2.61 1.49 2.73 1.24 5.75 1.66 5.97.61 5.99-.27 5.92-.97 5.8-1.5 11.24-4.18"/><path id="SvgjsPolyline2112" fill="none" stroke="#000" stroke-width="1" d="m72.26 298.17.34 11.99.85 11.97.95 8.95 1.75 11.87 2.28 11.78 2.78 11.68 6.03 20.1 4.13 11.27 3.46 8.31 5.21 10.81 4.48 7.8 5.22 7.33 4.06 4.41 4.72 3.68 2.65 1.41 2.82 1 2.96.49 3-.03 2.95-.52 5.57-2.18 2.61-1.48 4.88-3.48 6.72-5.99 8.19-8.76 7.63-9.26 16.4-21.45 5.91-6.79 6.71-5.97 5.12-3.12 5.6-2.11 5.91-1.03 5.99-.07 5.96.69 5.86 1.29 8.55 2.78 5.55 2.28 8.11 3.89"/><path id="SvgjsPolyline2113" fill="none" stroke="#000" stroke-width="1" d="m222.67 298.91.03 3 .66-23.99 1.08-11.95 1.4-8.89 1.39-5.83 1.93-5.68 2.67-5.37 3.52-4.85 4.25-4.22 7.17-5.44 38-24.1 18.22-10.43 8.23-3.64 5.71-1.83 5.87-1.21 5.98-.53 5.99.15 5.96.72 11.71 2.59 34.6 9.92 20.39 5.04 8.82 1.77 8.9 1.36 5.96.61 8.99.41 9-.17 11.96-.97 44.56-6.26 26.83-3.03 26.9-2.22 38.92-2.52"/><path id="SvgjsPolyline2114" fill="none" stroke="#000" stroke-width="1" d="m222.8 299.5.87 23.98.8 8.96 1.29 8.91 1.27 5.86 1.77 5.73 2.46 5.47 3.29 5.01 4.07 4.4 7.02 5.61 35.38 22.64 20.72 12.11 8.16 3.78 5.67 1.95 5.84 1.37 5.95.69 6 .01 8.93-1.08 11.68-2.73 28.82-8.35 23.26-5.9 17.7-3.25 8.95-.91 5.99-.27 12 .23 11.95 1.07 44.55 6.29 26.84 2.98 23.92 1.96 41.91 2.72"/><path id="SvgjsPolyline2115" fill="none" stroke="#000" stroke-width="1" d="m281.49 300.79.23-2.99.28 5.99.82 5.94 1.52 5.8 2.17 5.59 4.36 7.86 5.54 7.08 4.25 4.23 9.06 7.88 7.05 5.59 7.3 5.26 7.62 4.78 5.3 2.81 5.5 2.41 5.67 1.94 8.78 1.96 5.96.71 5.99.31 9-.03 32.97-1.25 9 .09 11.98.67 14.91 1.62 47.43 7.36 23.82 2.89 29.9 2.53 50.91 2.95"/><path id="SvgjsPolyline2116" fill="none" stroke="#000" stroke-width="1" d="m280.2 302.77.79-8.95 1.35-5.84 1.85-5.71 2.3-5.54 2.87-5.27 5.28-7.27 4.09-4.39 8.97-7.97 14.25-10.99 7.55-4.89 5.25-2.9 5.45-2.52 5.63-2.06 8.74-2.13 5.94-.79 5.99-.37 9 .01 35.96 1.62 12-.18 8.98-.54 14.91-1.62 44.47-6.92 26.79-3.29 29.89-2.52 50.92-2.96"/><path id="SvgjsPolyline2117" fill="none" stroke="#000" stroke-width="1" d="m.16 451.9 11.24 14.06 12.24 13.19 12.99 12.45 15.93 13.68 11.93 9.09 7.49 5 5.18 3.02 5.37 2.67 5.6 2.14 5.83 1.42 2.97.37 6-.04 2.97-.41 5.79-1.53 8.25-3.58 13.16-7.2 5.44-2.51 5.75-1.71 2.97-.37 3 .05 5.85 1.28 13.63 6.24 5.66 1.95 2.94.61 2.98.34 5.99-.05 5.96-.75 20.64-3.82 5.97-.57 6-.02 8.91 1.19 5.81 1.5 17.16 5.42 5.9 1.09 2.99.22 3-.02 5.95-.73 17.41-4.55 14.74-2.73 17.5-4.22 5.93-.91 5.99-.28 5.98.43 17.66 3.42 8.93 1.09 9 .15 23.95-1.45 12-.17 8.98.59 20.8 2.84 8.98.6 8.99-.37 23.84-2.72 8.99-.37 9 .14 14.96 1.04 80.62 7.84"/><path id="SvgjsPolyline2118" fill="none" stroke="#000" stroke-width="1" d="m84.25 302.01.03-3 .24 12 .73 11.98 2.5 20.85 3.99 20.61 2.95 11.63 2.56 8.63 3.9 11.34 3.37 8.35 3.86 8.12 2.94 5.24 3.33 4.99 3.86 4.58 4.59 3.85 2.62 1.45 2.82 1 2.97.45 2.99-.12 2.93-.63 5.5-2.37 5-3.3 6.82-5.87 6.27-6.46 5.91-6.78 15.19-18.58 6.08-6.63 6.81-5.88 5.1-3.14 2.73-1.24 2.83-1 5.86-1.25 5.99-.31 5.98.46 5.89 1.09 5.79 1.59 5.66 1.98 8.26 3.56"/><path id="SvgjsPolyline2119" fill="none" stroke="#000" stroke-width="1" d="m84.24 302.88.26-12 .71-11.97 1.16-11.95 1.65-11.88 4.07-20.6 3-11.62 3.52-11.47 4.12-11.27 3.58-8.25 4.15-7.99 3.19-5.08 3.68-4.73 4.35-4.12 2.49-1.67 2.71-1.29 2.89-.78 2.98-.22 2.98.33 2.89.81 5.39 2.6 7.24 5.34 6.52 6.19 6.08 6.64 21.1 25.37 4.17 4.31 4.52 3.94 4.97 3.36 5.44 2.51 5.79 1.53 5.97.56 5.99-.26 8.85-1.59 5.76-1.68 8.4-3.22 8.15-3.81 7.94-4.24 31-18.3 10.51-5.79 5.44-2.54 5.61-2.11 5.8-1.55 5.93-.9 8.99-.06 8.91 1.23 11.65 2.84 31.7 9.17 20.37 5.08 8.82 1.81 8.89 1.41 8.95.89 6 .25 8.99-.11 11.97-.91 47.54-6.62 23.85-2.67 26.9-2.24 38.92-2.53"/><path id="SvgjsPolyline2120" fill="none" stroke="#000" stroke-width="1" d="m210.63 298.87.02 3 .57-23.99.63-8.97 1.05-8.94 1.07-5.9 1.55-5.8 2.31-5.52 1.56-2.57 3.97-4.47 4.86-3.51 26.7-13.67 20.69-12.15"/><path id="SvgjsPolyline2121" fill="none" stroke="#000" stroke-width="1" d="m210.86 299.96.76 23.98.7 8.98 1.17 8.92 1.19 5.88 1.75 5.73 2.62 5.39 1.73 2.45 4.28 4.18 5.02 3.28 26.68 13.72 33.5 19.95 10.46 5.88 8.13 3.85 5.65 2.03 5.82 1.45 5.94.78 6 .1 8.94-.98 8.79-1.9 34.61-9.93 23.28-5.82 8.82-1.76 8.9-1.35 14.96-1.01 8.99.19 11.96.99 44.56 6.25 26.83 3.02 26.91 2.21 38.92 2.52"/><path id="SvgjsPolyline2122" fill="none" stroke="#000" stroke-width="1" d="m292.55 298.3.51 2.96 1.29-5.85 1.17-2.76 1.58-2.55 4.01-4.45 6.93-5.73 12.28-8.62 17.7-11.3 13.12-7.25 11-4.78 11.46-3.54 14.72-2.87 44.64-5.63 47.35-7.91 23.77-3.27 17.9-1.85 17.95-1.43 59.91-3.29"/><path id="SvgjsPolyline2123" fill="none" stroke="#000" stroke-width="1" d="m289.64 297.8.95 5.91 1.03 2.82 3.01 5.17 5.9 6.79 9.11 7.8 16.99 12.34 15.22 9.6 7.97 4.17 5.49 2.41 11.39 3.78 8.79 1.91 8.9 1.29 32.88 2.89 17.87 2.1 50.34 8.16 26.78 3.44 35.87 2.98 50.93 2.77"/><path id="SvgjsPolyline2124" fill="none" stroke="#000" stroke-width="1" d="m285.58 300.65.32-2.98 1.38-5.83 1.05-2.81 2.75-5.33 3.51-4.86 2.01-2.23 6.58-6.13 14.03-11.28 9.73-7.01 7.53-4.93 7.83-4.43 5.43-2.56 5.58-2.18 5.74-1.76 8.81-1.84 8.93-1.06 38.97-1.56 17.93-1.55 14.86-2.02 44.43-7.11 26.81-3.17 32.9-2.59 44.93-2.48"/><path id="SvgjsPolyline2125" fill="none" stroke="#000" stroke-width="1" d="m.28 471.42 10.11 11.07 12.97 12.48 13.65 11.72 16.66 12.79 12.47 8.33 10.53 5.74 8.38 3.27 5.83 1.4 2.97.39 5.99.05 2.98-.34 5.84-1.37 8.35-3.34 16.09-8.07 5.66-1.96 2.94-.57 2.99-.21 5.93.79 5.64 2.04 10.99 4.81 5.81 1.43 2.99.28 3-.02 5.95-.73 5.85-1.32 23.11-6.46 5.9-1.1 5.97-.54 6 .17 5.92.9 23.05 6.64 5.94.84 3 .07 2.99-.16 5.92-.95 14.51-3.81 11.79-2.24 17.5-4.18 5.92-1.01 5.98-.42 8.96.7 17.67 3.41 8.96.75 9-.22 23.9-2.17 11.99-.47 11.97.69 20.81 2.79 8.99.38 8.98-.57 20.86-2.42 8.99-.42 8.99.11 17.96 1.25 74.65 7.26"/><path id="SvgjsPolyline2126" fill="none" stroke="#000" stroke-width="1" d="m96.22 299.06.03 3 .59-20.99 1.95-20.91 3.36-20.72 4.09-17.53 4.45-14.32 3.29-8.38 2.54-5.43 2.92-5.24 3.44-4.91 4.19-4.28 2.45-1.72 2.7-1.3 2.91-.73 2.99-.11 2.96.47 5.56 2.21 5.05 3.22 4.66 3.79 6.48 6.24 16.09 17.81 6.24 6.48 6.82 5.86 5.03 3.26 5.46 2.49 5.78 1.58 5.95.67 8.98-.45"/><path id="SvgjsPolyline2127" fill="none" stroke="#000" stroke-width="1" d="m96.22 298.29.75 20.98 1.97 20.9 3.38 20.72 4.11 17.52 4.48 14.32 3.31 8.37 2.56 5.42 2.95 5.22 3.49 4.88 4.25 4.22 2.49 1.67 2.74 1.21 2.92.64 3 .02 2.94-.54 2.83-.99 5.26-2.88 4.81-3.58 6.62-6.09 20.24-22.14 4.22-4.26 4.5-3.97 4.86-3.51 5.29-2.83 5.66-1.96 5.9-1.03"/><path id="SvgjsPolyline2128" fill="none" stroke="#000" stroke-width="1" d="m198.6 298.85.02 3 .66-26.99.66-8.98 1.11-8.93 1.15-5.88 1.76-5.74 2.78-5.29 1.94-2.29 2.29-1.93 5.32-2.76 19.95-6.52 13.76-5.95 13.22-7.09 33.58-19.83 7.97-4.17 5.51-2.37 8.61-2.61 5.92-.94 5.99-.25 8.96.79 11.72 2.53 31.71 9.16 23.26 5.89 14.73 2.83 14.91 1.5"/><path id="SvgjsPolyline2129" fill="none" stroke="#000" stroke-width="1" d="m198.88 297.36.7 26.99 1.29 14.94.91 5.93 1.35 5.84 2.08 5.62 1.46 2.62 1.83 2.37 2.21 2.03 5.2 2.95 19.92 6.64 8.34 3.38 8.12 3.88"/><path id="SvgjsPolyline2130" fill="none" stroke="#000" stroke-width="1" d="m296.13 299.23 1.45 2.61 2.05-1.94 62.98-1.51 89.94-3.26 50.99-.95 96-.57"/><path id="SvgjsPolyline2131" fill="none" stroke="#000" stroke-width="1" d="m295.67 302.08.85-2.86 1.9-2.3 5-3.3 5.39-2.64 27.53-11.92 24.61-11.1 11.07-4.62 14.14-5.01 17.35-4.77 20.51-4.52 32.38-6.39 20.69-3.55 17.83-2.47 20.89-2.17 20.94-1.58 62.92-3.06"/><path id="SvgjsPolyline2132" fill="none" stroke="#000" stroke-width="1" d="m295.23 298.55.95 2.84 1.84 2.36 2.3 1.91 5.1 3.17 10.69 5.45 35.09 17.01 13.63 6.26 14 5.39 17.29 4.97 17.59 3.82 47.15 8.99 17.75 2.99 17.83 2.47 17.89 1.92 23.93 1.86 59.92 3.01"/><path id="SvgjsPolyline2133" fill="none" stroke="#000" stroke-width="1" d="m1.79 490.86 13.14 12.29 11.52 9.61 14.36 10.86 12.37 8.47 10.25 6.24 10.72 5.39 8.45 3.06 8.84 1.64 5.99.04 2.98-.33 5.85-1.3 8.41-3.2 16.31-7.61 5.75-1.69 2.97-.4 2.99-.03 5.89 1.1 11.1 4.55 5.67 1.92 5.93.83 3-.06 2.98-.33 5.87-1.27 31.29-10.44 5.81-1.51 5.91-1 5.99-.28 5.97.52 5.87 1.24 17.28 5.04 5.92.95 5.99.06 5.94-.81 14.54-3.69 11.76-2.36 14.59-3.48 5.9-1.07 5.98-.5 8.97.59 17.68 3.35 8.97.68 8.99-.36 26.81-3.11 11.98-.77 11.98.47 20.82 2.73 8.98.45 8.99-.5 23.85-2.62 14.99-.16 17.96 1.21 74.65 7.21"/><path id="SvgjsPolyline2134" fill="none" stroke="#000" stroke-width="1" d="m108.2 301.98.02-3 .58 20.99 1.79 20.92 2.61 17.81 3.78 17.59 4.42 14.33 2.24 5.56 2.65 5.38 3.22 5.06 1.9 2.32 2.16 2.08 2.44 1.73 2.73 1.23 2.94.58 2.99-.08 2.93-.66 5.45-2.48 4.96-3.37 4.62-3.82 19.38-18.79 6.89-5.79 4.98-3.35 5.34-2.71 5.68-1.91 2.94-.63 5.96-.64 5.99.13 5.95.78 8.73 2.16 8.46 3.06 8.2 3.7 7.99 4.16 10.41 5.96"/><path id="SvgjsPolyline2135" fill="none" stroke="#000" stroke-width="1" d="m108.2 302.66.6-20.99 1.37-17.95 2.34-17.84 3.45-17.66 4-14.45 4.33-11.19 4.36-7.86 3.81-4.62 2.29-1.93 2.59-1.51 2.85-.93 2.98-.26 2.97.38 2.86.89 5.33 2.75 4.86 3.5 4.56 3.9 17.18 16.76 6.8 5.9 7.47 4.99 5.44 2.52 5.75 1.69 2.96.52 2.98.32 5.99.04 5.97-.63 5.88-1.2 5.76-1.66 5.64-2.05"/><path id="SvgjsPolyline2136" fill="none" stroke="#000" stroke-width="1" d="m186.57 298.82.02 3 .46-23.99 1.35-17.95 2.07-11.81 1.88-5.69 1.35-2.68 1.74-2.44 2.19-2.04 2.59-1.5 2.82-1 2.93-.65 17.82-2.5 5.85-1.35 8.57-2.72"/><path id="SvgjsPolyline2137" fill="none" stroke="#000" stroke-width="1" d="m186.9 297.72.53 23.99 1.32 17.95 2.02 11.82 1.83 5.71 1.3 2.7 1.69 2.48 2.13 2.1 2.54 1.58 2.8 1.07 5.88 1.17 14.85 2.12 8.73 2.18"/><path id="SvgjsPolyline2138" fill="none" stroke="#000" stroke-width="1" d="m296.9 297.99 1.38 2.61 2.71 1.3 2.86.89 29.22 6.78 14.53 3.71 14.43 4.12 31.54 9.7 20.24 5.59 20.45 4.79 17.65 3.5 14.8 2.47 14.86 2.04 26.86 2.65 35.94 2.11 53.97 1.93"/><path id="SvgjsPolyline2139" fill="none" stroke="#000" stroke-width="1" d="m296.88 302.45 1.1-2.74 2.67-1.36 2.87-.87 29.31-6.41 14.57-3.57 17.35-4.79 34.51-10.23 17.4-4.6 17.55-4.03 20.61-3.98 26.72-3.9 29.86-2.81 35.95-1.96 50.97-1.75"/><path id="SvgjsPolyline2140" fill="none" stroke="#000" stroke-width="1" d="m297.7 299.79 2.88.82 2.97.38 35.85 3.3 20.85 2.45 71.17 10.95 17.85 2.28 17.91 1.82 20.94 1.54 29.97 1.39 80.98 1.75"/><path id="SvgjsPolyline2141" fill="none" stroke="#000" stroke-width="1" d="m296.42 297.78 1.03 2.79 2.72-1.21 2.96-.46 35.8-3.85 23.77-3.28 56.12-9.98 20.73-3.31 14.87-1.97 17.9-1.88 20.94-1.59 26.97-1.32 77.98-1.9"/><path id="SvgjsPolyline2142" fill="none" stroke="#000" stroke-width="1" d="m296.25 302.16.99-2.81 2.86.83 59.96 2.2 71.87 4.18 35.97 1.59 47.99 1.07 83.99.69"/><path id="SvgjsPolyline2143" fill="none" stroke="#000" stroke-width="1" d="m.06 505.89 13.72 11.64 11.95 9.07 14.82 10.22 12.75 7.9 10.55 5.7 11.02 4.73 8.67 2.41 5.94.78 6-.03 2.98-.35 5.85-1.29 8.44-3.1 13.69-6.14 5.7-1.85 2.95-.56 5.98-.05 2.95.54 2.88.83 11.16 4.41 5.8 1.48 2.99.27 5.98-.42 8.71-2.23 36.72-13.11 8.71-2.24 5.96-.71 3-.05 5.96.57 5.86 1.28 11.52 3.38 5.84 1.35 5.96.62 3-.03 5.96-.71 37.99-8.79 8.88-1.39 8.99.06 20.67 3.65 8.98.51 8.98-.58 29.7-4.2 11.95-1.05 11.99.23 20.83 2.65 8.98.5 8.99-.46 20.86-2.39 14.99-.47 20.95 1.25 74.66 7.16"/><path id="SvgjsPolyline2144" fill="none" stroke="#000" stroke-width="1" d="m120.18 299.01.03 3 .32-17.99 1.11-17.97 2.03-17.88 2.56-14.78 2.85-11.65 4-11.3 2.72-5.35 1.64-2.51 1.89-2.33 2.19-2.04 2.54-1.6 2.83-.96 2.98-.22 2.97.44 5.56 2.2 7.51 4.95 16.14 13.43 4.78 3.62 7.66 4.71 5.5 2.4 5.77 1.63 5.93.83 6 .08 8.92-1.1"/><path id="SvgjsPolyline2145" fill="none" stroke="#000" stroke-width="1" d="m120.18 298.42.58 20.99 1 14.96 2.05 17.88 2.59 14.78 2.88 11.64 1.84 5.71 2.23 5.57 2.77 5.32 1.67 2.49 1.94 2.29 2.25 1.98 2.59 1.5 2.87.84 2.99.1 2.95-.53 5.52-2.32 7.46-5.02 13.81-11.53 7.14-5.49 7.7-4.63 8.4-3.2 5.88-1.15 8.99-.29 8.91 1.19 8.69 2.33"/><path id="SvgjsPolyline2146" fill="none" stroke="#000" stroke-width="1" d="m174.54 298.8.02 3 .59-26.99.82-11.98 1.03-8.93 1.03-5.91 1.49-5.81 2.33-5.52 1.69-2.48 2.16-2.06 2.62-1.45 2.9-.77 5.98-.26 14.98.71 5.99-.3 5.95-.8"/><path id="SvgjsPolyline2147" fill="none" stroke="#000" stroke-width="1" d="m174.9 298.07.53 23.99 1.25 17.96 1.2 8.91 1.23 5.87 1.85 5.71 1.3 2.7 1.69 2.47 2.17 2.06 2.62 1.45 2.89.78 5.99.28 14.98-.61 5.99.34 5.94.84"/><path id="SvgjsPolyline2148" fill="none" stroke="#000" stroke-width="1" d="m297.28 298.89 2.27 1.88 2.92.71 29.65 4.54 17.73 3.1 17.61 3.7 52.61 12.2 20.63 3.91 20.77 3.11 26.85 2.81 29.93 1.92 29.98 1.21 50.98 1.36"/><path id="SvgjsPolyline2149" fill="none" stroke="#000" stroke-width="1" d="m1.46 522.98 11.95 9.08 12.34 8.52 15.26 9.55 13.1 7.29 10.85 5.13 8.43 3.12 8.75 2.11 5.96.61 5.99-.17 8.82-1.74 5.68-1.94 16.61-6.91 5.8-1.54 2.97-.35 3 .01 5.89 1.07 11.25 4.18 5.8 1.49 2.99.29 5.97-.42 8.7-2.3 16.98-5.95 28.49-9.4 8.71-2.24 5.96-.67 3 .01 5.95.7 20.35 5.14 5.97.62 3-.03 8.9-1.26 32.15-7.4 8.92-1.17 8.98.33 17.71 3.2 8.97.52 11.95-1.07 29.6-4.86 14.89-1.75 6-.19 5.99.21 20.85 2.55 8.98.47 8.98-.47 20.87-2.34 11.99-.46 8.99.22 11.98.79 74.66 7.08"/><path id="SvgjsPolyline2150" fill="none" stroke="#000" stroke-width="1" d="m132.17 301.95.01-3 .33 18 .82 14.98 1.42 14.93 2.24 14.83 2.7 11.69 2.94 8.5 2.72 5.34 1.73 2.45 2.06 2.17 2.45 1.73 2.8 1.04 2.98.26 2.96-.42 2.86-.9 5.38-2.65 17.48-11.62 5.19-3.02 5.43-2.54 5.68-1.92 5.88-1.19 5.98-.44 5.99.25"/><path id="SvgjsPolyline2151" fill="none" stroke="#000" stroke-width="1" d="m132.15 302.48.26-15 .88-17.98 1.36-14.93 1.63-11.89 2.35-11.77 2.48-8.64 3.58-8.25 3.5-4.85 2.26-1.96 2.66-1.39 2.92-.62 2.99.13 2.91.7 2.8 1.1 5.27 2.85 17.48 11.63 7.97 4.17 8.53 2.83 5.92.98 5.99.24"/><path id="SvgjsPolyline2152" fill="none" stroke="#000" stroke-width="1" d="m162.51 298.77.02 3 .16-15 .59-14.98.9-11.97 1.08-8.93 1.67-8.84 1.68-5.76 2.56-5.42 1.81-2.38 2.31-1.91 2.73-1.2 2.96-.45 5.96.58 11.68 2.78 8.87 1.47 5.99.3 8.97-.64 5.89-1.1 8.65-2.49 8.37-3.29 8.13-3.86"/><path id="SvgjsPolyline2153" fill="none" stroke="#000" stroke-width="1" d="m162.89 298.41.69 26.99.8 11.98.95 8.94 1.45 8.88 1.44 5.83 2.11 5.61 1.46 2.61 1.88 2.33 2.37 1.83 2.78 1.09 2.98.36 5.95-.65 14.63-3.28 8.95-.96"/><path id="SvgjsPolyline2154" fill="none" stroke="#000" stroke-width="1" d="m1.37 538.09 12.37 8.48 12.71 7.96 15.66 8.88 10.72 5.39 11.03 4.72 8.55 2.8 8.81 1.77 5.99.4 5.98-.35 8.79-1.89 5.67-1.95 13.93-5.58 5.77-1.62 2.96-.44 3-.11 5.93.83 11.33 3.93 5.8 1.49 2.99.3 5.97-.42 5.83-1.41 19.99-6.42 23.39-5.39 20.17-5.8 5.93-.94 2.99-.13 5.98.45 20.44 4.76 5.97.54 3-.06 5.95-.7 26.35-5.91 8.87-1.48 8.99-.12 5.95.76 14.76 2.62 8.99.23 8.94-.97 44.4-7.32 8.93-1.08 5.99-.32 8.99.33 17.87 2.2 8.98.42 8.99-.53 14.89-1.73 8.97-.72 9-.21 9 .25 17.95 1.31 65.71 6.17"/><path id="SvgjsPolyline2155" fill="none" stroke="#000" stroke-width="1" d="m144.15 298.98.02 3 .26-18 .72-14.98 1.01-11.95 1.54-11.9 1.69-8.84 2.47-8.65 2.39-5.5 1.57-2.55 1.93-2.3 2.36-1.84 2.76-1.14 2.97-.33 2.98.35 5.69 1.88 16.1 8.03 8.38 3.27 5.82 1.46 5.94.78 8.99-.11"/><path id="SvgjsPolyline2156" fill="none" stroke="#000" stroke-width="1" d="m144.13 298.51.92 29.99.92 11.96 1.41 11.92 1.54 8.86 2.2 8.73 2.09 5.62 2.97 5.2 2 2.23 2.44 1.73 2.81 1 2.99.19 2.96-.44 5.66-1.98 18.86-9.21 8.55-2.79"/><path id="SvgjsPolyline2157" fill="none" stroke="#000" stroke-width="1" d="m2.01 553.17 12.76 7.88 13.05 7.4 13.33 6.87 10.9 5.01 8.37 3.31 8.58 2.71 8.82 1.79 5.97.48 6-.2 8.84-1.61 5.73-1.79 14.01-5.34 5.77-1.64 2.96-.49 2.99-.18 5.96.65 14.28 4.56 5.92.9 2.99-.06 5.91-1 14.32-4.47 8.75-2.09 8.93-1.1 14.97-.79 8.95-.98 5.88-1.19 14.5-3.79 5.95-.77 3-.02 5.96.66 17.57 3.88 5.98.44 3-.09 8.9-1.28 17.59-3.82 8.91-1.19 8.98.24 14.78 2.56 8.97.62 8.96-.8 20.73-3.3 23.88-2.45 23.79-3.14 5.99-.27 6 .2 17.88 2.06 8.99.36 8.98-.54 17.89-1.95 11.98-.56 12 .25 11.97.78 68.72 6.21"/><path id="SvgjsPolyline2158" fill="none" stroke="#000" stroke-width="1" d="m.73 566.57 23.69 12.95 13.51 6.52 11.02 4.74 8.43 3.15 8.62 2.59 8.82 1.74 5.98.52 6-.11 8.87-1.42 5.77-1.64 16.97-6 5.86-1.24 2.99-.23 5.97.54 14.35 4.33 5.92.86 5.97-.48 17.31-4.89 8.87-1.49 8.99-.02 20.86 2.44 8.98.46 8.95-.88 14.61-3.35 5.97-.61 5.98.37 14.68 3.04 8.94.91 5.99-.33 17.71-3.22 8.95-.85 5.99.26 17.78 2.77 5.99.17 5.98-.52 14.82-2.32 8.96-.79 9-.05 17.98.79 9 .07 8.98-.58 14.88-1.84 5.99-.34 8.99.44 14.9 1.64 9 .16 26.88-2.47 14.99-.37 20.97 1.06 59.78 5.11"/><path id="SvgjsPolyline2159" fill="none" stroke="#000" stroke-width="1" d="m1.54 563.11 10.42 5.96 13.24 7.04 10.78 5.26 10.98 4.84 8.41 3.21 8.6 2.65 8.82 1.78 5.97.53 6-.11 8.87-1.42 5.77-1.66 16.91-6.16 5.84-1.33 5.99-.15 2.97.42 14.32 4.4 5.92.93 3-.03 5.92-.94 14.35-4.36 8.79-1.87 8.98-.56 17.98.84 8.99-.1 8.89-1.32 14.58-3.53 5.97-.56 2.99.08 5.95.81 14.65 3.17 5.97.52 3-.05 5.97-.64 20.6-4.04 5.97-.58 8.98.43 14.79 2.49 8.98.32 5.97-.59 20.76-3.11 8.98-.59 23.98-.8 23.82-2.94 5.98-.46 8.99.22 14.9 1.72 8.99.45 8.98-.45 20.89-2.14 11.99-.39 12 .34 11.97.8 62.75 5.55"/><path id="SvgjsPolyline2160" fill="none" stroke="#000" stroke-width="1" d="m.02 580.13 21.46 10.75 19.22 8.45"/><path id="SvgjsPolyline2161" fill="none" stroke="#000" stroke-width="1" d="m173.06 599.97 5.97-.46 6 .21"/><path id="SvgjsPolyline2162" fill="none" stroke="#000" stroke-width="1" d="m163.83 599.78 8.69-2.32 2.96-.48 5.99-.31 8.94.94 8.8 1.85"/><path id="SvgjsPolyline2163" fill="none" stroke="#000" stroke-width="1" d="m242.21 599.34 8.78-1.98 5.96-.64 5.99.32 14.72 2.88"/><path id="SvgjsPolyline2164" fill="none" stroke="#000" stroke-width="1" d="m297.76 599.9 8.87-1.52 8.98-.52 5.97.49 8.88 1.51"/><path id="SvgjsPolyline2165" fill="none" stroke="#000" stroke-width="1" d="m350.07 599.94 11.86-1.84 8.97-.61 8.99.36 17.89 2.02"/><path id="SvgjsPolyline2166" fill="none" stroke="#000" stroke-width="1" d="m101.58 599.16 11.29-4.04 5.82-1.46 2.97-.38 5.99.2 5.84 1.36 11.48 3.43 5.97.47 5.94-.79 17.33-4.83 5.95-.81 2.99-.1 8.97.69 23.59 4.38 8.96.85 8.96-.67 14.65-3.18 5.98-.47 5.97.47 14.71 2.94 8.97.63 5.97-.5 14.78-2.54 5.98-.49 8.97.54 11.84 1.99 5.97.54 5.99-.19 17.81-2.58 8.98-.54 11.98.61 23.88 2.39 11.99.37 6-.28 14.89-1.73 5.99-.35 6 .17 17.9 1.81 9 .09 23.89-2.22 14.99-.55 11.99.32 11.98.74 53.82 4.45"/><path id="SvgjsPolyline2167" fill="none" stroke="#000" stroke-width="1" d="m2.56 594.96 10.9 5.04"/></g></svg>
