<?xml version="1.0" standalone="no"?>
<svg id="SvgjsSvg1001" width="600" height="625" xmlns="http://www.w3.org/2000/svg" version="1.1"
    xmlns:xlink="http://www.w3.org/1999/xlink" xmlns:svgjs="http://svgjs.com/svgjs" class="svg-paper"
    viewBox="0 0 600 600">
    <title id="SvgjsTitle2054">x=(x+sqrt(x*x + y*y))|y=sin(exp(sin(abs(x)))*min(sqrt(x*x +
        y*y),y))|dTest=0.0|sd=0.2|sm=0.2|ts=0.05 | generated with FlowLines</title>

    <!-- <filter id="blur">
        <feGaussianBlur stdDeviation="1.5" />
    </filter> -->
    <!-- 
    <defs>
        <linearGradient id="Gradient1" x1="0" x2="1" y1="0" y2="1">
            <stop class="stop1" offset="0%" stop-color="#170629" />
            <stop class="stop2" offset="100%" stop-color="#131517" />
        </linearGradient>
    </defs> -->
    <style>
        svg {
            background: #131517
        }

        polyline {
            stroke: #59149a;
        }

        g#SvgjsG2056 {
            filter: blur(2px);
        }
    </style>
    <!-- <rect id="SvgjsRect2055" width="600" height="600" fill="#000000" /> -->
    <!-- <rect id="SvgjsRect2168" width="600" height="600" fill="url(#Gradient1)" /> -->
    <g id="SvgjsG2056">
        <polyline id="SvgjsPolyline2057"
            points="1.05,36.44 14.06,28.98 27.31,21.95 38.1,16.69 49.08,11.86 57.48,8.64 66.08,5.98 74.89,4.15 80.86,3.58 86.85,3.64 95.74,5 104.35,7.59 118.45,12.7 124.3,14.03 127.28,14.31 130.28,14.26 136.18,13.22 144.73,10.4 150.53,8.89 156.5,8.55 162.42,9.48 176.79,13.78 185.62,15.49 194.6,15.85 215.53,14.19 224.53,14.14 233.43,15.4 248.03,18.79 254.01,19.2 259.98,18.65 274.65,15.51 283.6,14.74 289.58,15.19 307.26,18.57 316.19,19.57 325.17,19.11 339.96,16.64 345.95,16.31 351.94,16.68 366.75,19.01 375.69,20.02 384.69,20.37 402.68,20.22 411.68,20.47 438.52,23.3 444.52,23.23 462.41,21.32 471.4,20.97 480.38,21.52 498.28,23.38 513.27,23.91 522.27,23.67 537.24,22.71 600,17.25"
            fill="none" stroke="#000000" stroke-width="1" />
        <polyline id="SvgjsPolyline2058"
            points="2.15,49.96 14.87,42 27.85,34.49 41.12,27.5 51.98,22.39 60.31,18.99 68.86,16.19 77.65,14.28 83.62,13.72 89.62,13.84 98.48,15.35 104.21,17.1 121.05,23.45 126.89,24.8 129.88,25.07 132.88,25 138.76,23.89 147.26,20.94 153.04,19.33 159.01,18.88 161.99,19.17 167.84,20.49 179.26,24.18 187.96,26.48 196.84,27.9 217.72,30.11 223.6,31.28 238.08,35.21 243.98,36.26 246.97,36.46 252.96,36.12 270.51,32.19 279.45,31.3 288.4,32.2 308.92,36.66 317.8,38.05 326.79,38.06 344.54,35.12 353.52,34.7 359.5,35.2 380.23,38.57 427.82,44.71 436.82,44.82 457.69,42.52 466.68,42.2 475.66,42.79 493.55,44.75 505.53,45.28 514.53,45.13 526.51,44.44 598.21,37.93"
            fill="none" stroke="#000000" stroke-width="1" />
        <polyline id="SvgjsPolyline2059" points="0.2,23.04 13.49,16.07 26.98,9.51 37.94,4.63 49.09,0.2" fill="none"
            stroke="#000000" stroke-width="1" />
        <polyline id="SvgjsPolyline2060" points="119.52,0.43 125.48,1.04 131.44,0.43" fill="none" stroke="#000000"
            stroke-width="1" />
        <polyline id="SvgjsPolyline2061" points="171.74,0.18 180.66,1.33 186.65,1.18 192.59,0.36" fill="none"
            stroke="#000000" stroke-width="1" />
        <polyline id="SvgjsPolyline2062"
            points="102.98,0.26 114.32,4.18 120.19,5.39 123.18,5.59 129.14,5.01 143.53,0.79 149.47,0.07 152.47,0.21 158.36,1.31 172.78,5.43 181.7,6.5 187.69,6.23 193.63,5.4 220.1,0.1"
            fill="none" stroke="#000000" stroke-width="1" />
        <polyline id="SvgjsPolyline2063"
            points="100.48,0.78 114.63,5.75 120.5,6.96 123.49,7.16 129.46,6.59 143.83,2.34 149.77,1.6 155.74,2.15 173.07,6.98 181.98,8.16 190.96,7.68 214.57,3.42 223.52,2.49 229.51,2.64 235.47,3.36 250.12,6.54 256.08,7.15 262.07,6.81 276.78,3.87 285.73,3.07 294.68,3.87 309.47,6.38 315.46,6.69 321.44,6.32 336.25,3.93 342.23,3.57 348.22,3.93 363.05,6.19 372.01,6.9 381.01,6.71 407.9,4.25 416.89,3.96 425.87,4.48 440.77,6.2 446.77,6.36 452.75,6.02 467.67,4.42 476.66,4.25 503.55,6.65 515.54,7.06 527.54,6.77 539.51,6.05 599.31,1.11"
            fill="none" stroke="#000000" stroke-width="1" />
        <polyline id="SvgjsPolyline2064"
            points="1.39,65.14 13.72,56.6 26.35,48.52 39.3,40.94 52.59,33.99 63.56,29.14 72.07,26.22 80.85,24.29 86.83,23.78 92.82,24.02 101.63,25.78 107.32,27.69 124.05,34.31 129.89,35.65 132.88,35.87 135.88,35.75 141.74,34.5 150.19,31.41 155.94,29.73 158.91,29.29 164.89,29.45 170.76,30.71 190.71,37.24 213.94,43.26 231.17,48.47 240.02,50.04 243.02,50.13 248.99,49.61 269.41,44.75 275.38,44.21 278.38,44.27 284.33,44.98 313.6,51.56 322.49,52.87 331.48,52.72 349.21,49.62 358.18,49.11 370.11,50.3 405.61,56.29 420.48,58.23 426.47,58.51 432.47,58.36 453.32,55.9 462.31,55.49 471.29,56.01 492.16,58.29 504.15,58.7 513.15,58.45 525.12,57.65 599.8,50.67"
            fill="none" stroke="#000000" stroke-width="1" />
        <polyline id="SvgjsPolyline2065" points="2.6,8.17 18.92,0.56" fill="none" stroke="#000000" stroke-width="1" />
        <polyline id="SvgjsPolyline2066"
            points="1.39,80.33 15.71,69.42 28.04,60.88 40.7,52.85 53.73,45.41 64.51,40.14 72.89,36.88 81.59,34.59 87.54,33.84 93.53,33.87 96.52,34.19 102.38,35.42 110.87,38.39 124.66,44.3 130.4,46.02 133.36,46.51 139.34,46.43 142.28,45.85 156.38,40.75 159.29,40 165.25,39.44 171.2,40.16 179.84,42.65 222.37,57.33 231.1,59.53 237.06,60.14 240.06,60.11 246.01,59.39 266.34,54.17 272.3,53.52 275.3,53.53 284.2,54.76 316.35,62.21 325.24,63.56 334.23,63.46 354.91,59.89 363.9,59.57 372.86,60.36 405.45,65.51 417.38,66.78 423.38,66.96 429.37,66.74 450.21,64.18 459.19,63.67 468.18,64.12 489.04,66.48 501.03,66.97 510.03,66.76 522,65.97 599.65,58.61"
            fill="none" stroke="#000000" stroke-width="1" />
        <polyline id="SvgjsPolyline2067"
            points="2.17,95.48 15.94,83.89 27.87,74.79 42.67,64.55 55.41,56.64 65.99,50.98 74.24,47.4 82.85,44.79 88.77,43.83 91.76,43.65 97.75,43.95 100.71,44.42 106.51,45.95 112.12,48.07 128.55,55.4 134.32,57.04 137.29,57.42 140.29,57.44 146.18,56.36 157.34,51.96 163.07,50.21 166.03,49.75 172.02,49.82 177.91,50.95 183.66,52.67 217.56,64.77 223.35,66.35 229.25,67.41 235.24,67.69 241.21,67.11 247.06,65.83 258.57,62.42 264.41,61.04 270.36,60.36 273.36,60.37 282.26,61.63 293.89,64.59 320.24,70.45 329.16,71.59 338.14,71.21 355.83,67.91 364.8,67.21 376.77,67.93 403.51,71.63 415.46,72.66 427.45,72.43 448.28,69.78 457.26,69.24 466.25,69.66 490.1,72.28 505.09,72.51 523.05,71.35 597.71,64.18"
            fill="none" stroke="#000000" stroke-width="1" />
        <polyline id="SvgjsPolyline2068"
            points="1.58,112.66 12.44,102.31 26.07,90.56 40.3,79.54 55.08,69.27 65.34,63.05 76.1,57.74 84.61,54.85 90.5,53.73 93.49,53.49 99.48,53.69 102.45,54.14 108.25,55.67 113.84,57.83 130.08,65.59 135.75,67.54 138.69,68.14 141.67,68.38 147.62,67.69 153.29,65.75 164.37,61.15 170.23,59.91 176.22,59.91 182.13,60.91 187.92,62.48 213.54,70.98 219.35,72.47 225.27,73.46 231.26,73.76 237.23,73.26 243.1,72.05 260.36,66.95 266.27,65.91 272.26,65.76 281.14,67.12 295.67,70.86 304.51,72.52 322.03,76.64 330.95,77.81 339.93,77.45 357.61,74.1 363.57,73.39 369.56,73.19 378.55,73.65 402.4,76.35 414.37,77.13 426.35,76.7 447.17,73.96 456.15,73.44 465.14,73.88 488.99,76.53 503.98,76.76 524.93,75.31 599.58,68.09"
            fill="none" stroke="#000000" stroke-width="1" />
        <polyline id="SvgjsPolyline2069"
            points="0.09,132.09 12.28,118.84 25.22,106.34 38.84,94.57 53.03,83.5 65.38,74.99 75.8,69.05 84.08,65.54 89.86,63.93 92.81,63.43 98.8,63.12 101.79,63.34 107.67,64.5 116.09,67.66 134.87,77.03 140.59,78.82 143.56,79.26 146.56,79.3 152.44,78.21 166.2,72.26 171.91,70.46 174.87,69.96 180.86,69.83 186.81,70.62 212.94,77.36 221.82,78.8 227.81,79.02 236.74,78 242.57,76.56 259.78,71.32 265.7,70.37 268.7,70.23 271.69,70.33 277.63,71.19 295.06,75.68 306.85,77.87 321.42,81.42 327.32,82.54 333.29,83.11 342.26,82.64 359.93,79.23 365.89,78.49 371.88,78.22 380.87,78.52 404.78,80.57 416.78,80.82 428.74,79.88 446.57,77.42 455.55,76.95 464.53,77.44 488.38,80.11 497.37,80.4 506.37,80.18 521.33,79.09 598.96,71.56"
            fill="none" stroke="#000000" stroke-width="1" />
        <polyline id="SvgjsPolyline2070"
            points="0.03,151.53 11.24,137.45 23.31,124.1 36.16,111.51 51.94,97.64 66.18,86.65 76.26,80.14 81.56,77.34 87.09,75.01 92.85,73.36 95.81,72.86 101.8,72.62 104.78,72.9 110.63,74.2 118.96,77.59 137.46,87.51 143.1,89.55 149.03,90.37 152.02,90.18 157.81,88.65 171.39,82.3 177.09,80.44 180.04,79.89 183.02,79.59 189.01,79.69 194.97,80.41 212.72,83.42 218.69,83.98 224.68,84.03 230.65,83.44 236.53,82.25 256.57,75.98 262.44,74.76 265.42,74.46 268.42,74.4 274.39,74.99 280.24,76.3 291.8,79.51 306.55,82.23 324.04,86.48 329.94,87.52 335.92,87.98 344.89,87.35 362.55,83.88 371.5,82.93 380.49,82.86 407.45,84.3 416.45,84.19 425.42,83.44 443.24,80.92 452.21,80.22 461.2,80.48 488.03,83.42 497.03,83.68 506.02,83.43 520.98,82.31 598.61,74.74"
            fill="none" stroke="#000000" stroke-width="1" />
        <polyline id="SvgjsPolyline2071"
            points="1.38,170.9 11.56,156.06 22.69,141.92 36.78,126.35 51.78,111.66 65.35,99.84 77.43,90.95 82.57,87.86 87.95,85.21 93.59,83.19 96.51,82.5 102.47,81.89 105.47,82.01 108.44,82.41 114.22,83.98 122.41,87.69 140.6,98.18 146.15,100.45 152.02,101.59 155.02,101.56 160.87,100.29 166.36,97.89 177.06,92.47 179.85,91.36 185.63,89.77 194.58,88.94 215.57,89.61 224.54,89.03 230.45,88.01 236.26,86.51 256.22,80 262.11,78.9 265.1,78.67 271.09,78.96 274.05,79.45 291.42,84.13 309.13,87.3 326.61,91.61 332.53,92.58 338.51,92.94 347.47,92.18 362.17,89.18 371.07,87.88 383.05,87.41 404.05,87.97 413.04,87.83 422.01,87.13 439.83,84.58 448.78,83.68 454.78,83.58 460.77,83.9 478.64,86.08 487.6,86.86 496.6,87.09 505.59,86.82 520.55,85.65 559.34,81.65 598.17,78.05"
            fill="none" stroke="#000000" stroke-width="1" />
        <polyline id="SvgjsPolyline2072"
            points="0.02,198.14 8.51,182.27 19.84,164.6 32.53,147.87 48.35,129.82 56.69,121.2 65.35,112.9 72.12,106.96 79.21,101.42 84.18,98.07 89.41,95.14 94.94,92.81 100.76,91.37 106.74,91.05 109.72,91.35 115.54,92.78 123.74,96.47 141.55,107.58 146.85,110.4 152.47,112.47 158.4,113.24 161.39,113 167.15,111.37 183.1,103.05 191.49,99.83 200.3,98 215.19,96.23 224.06,94.71 232.75,92.39 252.59,85.51 258.43,84.13 261.4,83.74 267.39,83.69 273.32,84.58 293.58,90.09 308.4,92.35 331.74,97.91 340.7,98.67 349.66,97.92 367.3,94.34 376.21,93.15 385.2,92.66 412.19,92.05 421.14,91.18 444.91,87.89 450.9,87.61 456.9,87.76 483.73,90.77 492.72,91.17 501.71,91.04 516.68,89.99 561.44,85.37 597.28,82.05"
            fill="none" stroke="#000000" stroke-width="1" />
        <polyline id="SvgjsPolyline2073"
            points="0.7,228.15 4.84,216.89 8.37,208.61 13.53,197.78 17.73,189.82 23.79,179.47 28.66,171.9 35.53,162.06 42.77,152.49 52.26,140.88 60.2,131.88 68.47,123.19 74.97,116.96 81.81,111.12 89.16,105.92 94.43,103.06 100.04,100.95 105.93,99.89 108.93,99.84 111.92,100.12 117.73,101.56 123.24,103.93 128.46,106.88 143.33,117.02 151.03,121.67 156.53,124.04 159.43,124.84 165.39,125.33 168.36,124.95 174.07,123.14 179.42,120.44 192.45,113 200.68,109.37 226.4,101.17 248.87,92.76 254.66,91.2 260.61,90.42 263.6,90.39 269.56,91.09 289.75,96.83 295.64,97.95 304.59,98.85 310.5,99.87 333.81,105.59 339.75,106.37 345.75,106.49 354.68,105.48 369.36,102.38 378.23,100.88 387.18,99.94 411.12,98.17 437.84,94.33 443.81,93.73 449.8,93.51 455.8,93.73 476.64,96.26 485.61,97.01 500.6,97.01 515.56,95.91 557.33,91.52 599.15,87.64"
            fill="none" stroke="#000000" stroke-width="1" />
        <polyline id="SvgjsPolyline2074"
            points="0.48,302.54 1,287.56 2.13,275.61 3.9,263.74 7.03,249.08 11.17,234.66 16.16,220.52 20.8,209.45 27.41,195.99 36.38,180.39 46.28,165.36 56.96,150.87 68.38,136.96 78.62,126 87.57,118.02 94.98,112.93 100.38,110.33 103.22,109.37 109.13,108.37 112.13,108.39 115.1,108.75 120.87,110.38 126.3,112.92 131.42,116.04 150.79,130.21 158.46,134.9 163.97,137.27 166.85,138.09 172.8,138.73 178.73,137.88 184.36,135.83 189.69,133.08 210.42,121 223.86,114.33 234.77,109.34 245.98,105.09 251.82,103.72 254.8,103.35 260.79,103.4 266.69,104.45 283.81,110 289.64,111.4 295.59,112.17 304.58,112.47 310.54,113.17 316.42,114.35 333.8,119.03 339.66,120.32 345.6,121.13 351.59,121.35 357.58,120.94 363.51,120.05 389.96,114.63 428.42,108.21 437.36,107.13 443.35,106.83 449.35,106.96 476.15,110.17 485.13,110.7 494.13,110.65 509.09,109.63 559.8,104.22 598.64,100.68"
            fill="none" stroke="#000000" stroke-width="1" />
        <polyline id="SvgjsPolyline2075"
            points="12.39,302.41 12.42,299.41 12.95,314.4 14.11,326.34 16.5,341.15 19.17,352.85 22.49,364.38 27.52,378.5 32.19,389.55 38.78,403.03 47.61,418.71 57.29,433.88 67.75,448.53 77.15,460.21 85.31,469.01 89.7,473.1 94.39,476.84 99.44,480.07 102.12,481.41 107.8,483.31 110.77,483.77 116.75,483.58 119.68,482.96 125.3,480.87 130.55,477.98 135.52,474.61 156.64,457.79 164.02,452.65 169.22,449.67 174.71,447.25 180.47,445.59 183.43,445.1 189.42,444.85 195.38,445.47 201.24,446.74 218.46,451.98 224.27,453.46 230.2,454.41 236.19,454.52 239.17,454.2 244.98,452.75 250.52,450.45 266.57,442.31 272.25,440.4 275.18,439.78 281.15,439.25 287.14,439.6 293.05,440.63 307.62,444.17 313.58,444.78 322.57,444.44 328.49,443.48 334.32,442.1 357.33,435.27 371.96,432 380.87,430.69 410.68,427.39 443.18,421.7 449.14,420.99 458.13,420.48 467.12,420.61 476.1,421.26 517.76,426.56 538.63,428.9 559.54,430.8 598.43,433.73"
            fill="none" stroke="#000000" stroke-width="1" />
        <polyline id="SvgjsPolyline2076"
            points="12.48,300.36 12.97,288.37 14.36,273.43 16.21,261.58 19.46,246.94 22.79,235.41 27.83,221.29 32.52,210.24 39.11,196.77 47.95,181.09 57.64,165.93 68.11,151.29 77.52,139.61 85.7,130.83 90.11,126.77 94.82,123.05 99.9,119.87 102.6,118.56 108.31,116.75 111.28,116.35 117.26,116.65 120.18,117.32 125.77,119.49 131,122.43 135.94,125.82 154.66,140.84 164.43,147.8 169.64,150.77 175.13,153.18 180.89,154.83 183.85,155.33 189.84,155.61 195.81,155.04 201.68,153.85 219.01,148.97 224.87,147.69 230.83,147.02 236.82,147.23 239.77,147.73 245.5,149.49 250.95,152 264.2,159.02 269.8,161.16 275.66,162.45 281.64,162.76 287.61,162.22 293.5,161.05 305.08,157.93 311,156.96 316.99,156.66 322.98,157.02 328.9,157.96 334.74,159.33 357.74,166.18 372.35,169.56 381.24,170.98 410.99,174.8 440.5,180.17 446.45,180.94 455.43,181.57 464.43,181.54 473.41,180.97 535.93,173.3 559.83,171.11 598.73,168.22"
            fill="none" stroke="#000000" stroke-width="1" />
        <polyline id="SvgjsPolyline2077"
            points="1.67,301.16 2.28,286.17 3.5,274.23 5.36,262.38 8.6,247.74 12.86,233.36 16.99,222.09 21.71,211.06 28.4,197.64 37.43,182.07 47.35,167.06 58.03,152.57 69.47,138.68 77.66,129.91 86.58,121.89 94.01,116.82 99.44,114.28 102.3,113.39 108.23,112.55 111.22,112.66 117.09,113.84 122.66,116.06 127.9,118.98 132.86,122.35 151.69,137.23 159.05,142.4 167.02,146.56 172.77,148.25 175.74,148.63 181.72,148.36 184.66,147.75 190.33,145.81 201.08,140.48 219.47,130.34 230.28,125.14 238.72,122.03 244.56,120.68 247.54,120.34 253.53,120.45 259.41,121.61 276.26,127.92 284.94,130.27 290.89,130.96 296.89,130.91 305.86,130.29 314.83,130.91 323.65,132.71 346.79,139.05 355.68,140.44 361.67,140.75 367.66,140.57 376.6,139.57 412.04,133.21 426.94,131.52 435.93,131.43 441.92,131.85 462.71,134.79 471.66,135.69 477.65,135.95 486.65,135.82 501.6,134.66 552.28,128.94 597.1,124.94"
            fill="none" stroke="#000000" stroke-width="1" />
        <polyline id="SvgjsPolyline2078"
            points="0.05,282.6 1.43,270.69 3.45,258.86 6.12,247.16 9.44,235.63 13.39,224.3 17.97,213.21 23.13,202.38 30.32,189.21 38.21,176.46 48.46,161.67 59.44,147.41 69.18,136 77.49,127.35 86.53,119.47 94.07,114.57 99.56,112.17 105.41,110.87 108.4,110.71 114.35,111.42 120.05,113.27 125.41,115.95 130.49,119.15 149.51,133.78 156.89,138.92 162.15,141.8 164.91,142.96 170.72,144.45 173.71,144.67 179.65,143.98 185.34,142.08 193.35,138 214.11,125.96 227.5,119.21 238.62,114.72 244.43,113.24 247.4,112.81 253.39,112.79 259.29,113.84 276.27,119.82 284.99,122 290.95,122.61 302.95,122.49 308.92,123.02 317.75,124.74 340.93,130.94 346.86,131.87 352.84,132.24 358.84,132.03 367.75,130.85 408.92,122.54 420.76,120.55 429.7,119.57 438.69,119.29 444.69,119.48 471.47,122.86 480.45,123.44 489.45,123.42 504.41,122.4 555.11,116.83 599.92,112.78"
            fill="none" stroke="#000000" stroke-width="1" />
        <polyline id="SvgjsPolyline2079"
            points="24.39,302.27 24.42,299.27 24.96,314.26 26.15,326.2 28.6,341 31.32,352.68 34.67,364.21 38.61,375.54 44.31,389.41 49.42,400.27 56.39,413.55 65.56,429.04 73.84,441.54 82.85,453.53 90.83,462.49 97.52,468.49 102.48,471.87 105.13,473.27 110.78,475.24 116.74,475.75 122.64,474.73 125.47,473.74 130.84,471.07 138.26,465.99 145.2,460.26 165.27,442.2 183.57,426.67 192.44,418.59 200.56,409.76 213.35,393.11 219.24,386.32 223.82,382.44 226.38,380.89 229.13,379.7 232.03,378.94 235.01,378.6 240.98,379.02 246.8,380.47 252.43,382.54 265.88,389.16 291.85,404.19 305.08,411.25 310.61,413.57 316.32,415.39 325.17,416.95 334.16,416.97 343.07,415.71 354.72,412.84 389.31,402.89 406.79,398.57 424.48,395.32 439.43,394.15 451.43,394.4 463.38,395.48 507.93,401.75 531.78,404.43 558.69,406.67 597.61,409.2"
            fill="none" stroke="#000000" stroke-width="1" />
        <polyline id="SvgjsPolyline2080"
            points="0.26,297.23 0.76,312.22 2.1,327.16 4.39,341.98 6.96,353.7 11.07,368.12 15.09,379.43 19.72,390.5 26.32,403.97 35.28,419.57 45.19,434.6 55.88,449.08 67.3,462.99 77.52,473.96 86.41,482.01 93.75,487.21 99.08,489.95 101.89,491 107.75,492.24 110.75,492.36 116.68,491.58 122.35,489.63 130.24,485.32 149.67,471.24 157.32,466.5 162.79,464.06 165.67,463.2 171.61,462.47 177.54,463.25 183.18,465.26 188.51,468.01 206.62,478.65 220.05,485.33 233.69,491.56 242.02,494.97 247.72,496.84 253.59,498.06 259.57,498.33 265.52,497.58 271.31,496.02 282.69,492.2 288.49,490.67 294.41,489.72 303.39,489.3 309.36,488.65 318.17,486.82 338.49,481.57 344.43,480.72 350.42,480.48 359.38,481.26 388.8,487.13 427.3,493.34 439.2,494.8 445.2,495.02 451.19,494.82 480.99,491.39 495.98,491.28 510.94,492.37 555.68,497.17 597.5,501.03"
            fill="none" stroke="#000000" stroke-width="1" />
        <polyline id="SvgjsPolyline2081"
            points="8.5,297.42 8.85,309.41 10.24,324.34 12.09,336.2 15.35,350.84 18.68,362.36 23.74,376.48 28.45,387.52 35.07,400.97 43.97,416.62 53.72,431.75 66.05,448.74 75.6,460.3 83.89,468.97 88.37,472.96 93.16,476.57 98.33,479.6 101.08,480.8 106.87,482.33 109.86,482.58 115.82,482 121.53,480.2 126.9,477.53 131.95,474.29 136.76,470.7 159.77,451.47 167.06,446.18 172.15,443.02 180.2,439 185.81,436.88 208.93,430.44 217.24,427.01 224.84,422.21 240.78,408.55 245.67,405.08 251.06,402.47 256.9,401.15 262.89,401.2 265.85,401.65 271.66,403.16 282.81,407.58 301.74,416.66 307.27,418.98 315.9,421.51 324.82,422.61 333.8,422.19 342.66,420.59 383.01,408.98 412.13,401.78 426.88,399.07 438.82,397.91 447.82,397.76 459.8,398.42 474.7,400.17 510.34,405.22 528.22,407.27 558.11,409.87 597.02,412.47"
            fill="none" stroke="#000000" stroke-width="1" />
        <polyline id="SvgjsPolyline2082"
            points="1.3,299.31 1.95,314.3 3.19,326.23 5.64,341.03 8.33,352.72 11.68,364.24 16.76,378.35 22.78,392.08 28.22,402.78 37.27,418.34 45.51,430.87 57.93,447.8 69.39,461.67 77.6,470.43 86.53,478.44 93.97,483.48 99.4,486.01 102.27,486.9 108.2,487.72 111.19,487.61 117.06,486.41 122.63,484.19 127.86,481.26 132.83,477.9 151.68,463.05 159.06,457.91 167.08,453.84 172.86,452.26 175.84,451.95 181.81,452.39 184.73,453.08 190.36,455.13 198.43,459.12 216.75,469.37 227.45,474.81 238.58,479.26 244.4,480.72 247.37,481.14 253.36,481.21 259.27,480.2 264.98,478.39 279.01,473.08 284.82,471.6 293.77,470.73 305.75,471.33 314.71,470.64 323.52,468.8 340.83,463.89 346.67,462.52 352.59,461.54 361.57,461.02 367.56,461.31 376.49,462.44 408.91,468.59 417.8,470.01 426.74,470.98 435.74,471.24 441.73,470.93 468.49,467.37 477.47,466.8 486.46,466.85 501.42,467.93 552.1,473.62 599.91,477.89"
            fill="none" stroke="#000000" stroke-width="1" />
        <polyline id="SvgjsPolyline2083"
            points="6.95,298.74 7.59,313.73 8.84,325.66 10.75,337.51 14.08,352.13 17.47,363.64 22.6,377.73 28.63,391.46 34.06,402.16 43.03,417.76 52.87,432.83 63.46,447.39 74.9,461.28 83.22,469.92 87.71,473.9 92.49,477.52 97.66,480.56 100.4,481.78 106.17,483.37 109.16,483.66 115.12,483.17 120.86,481.44 126.25,478.82 131.32,475.62 136.16,472.06 154.61,456.72 161.76,451.25 169.34,446.41 174.7,443.73 183.24,440.91 189.16,439.95 195.15,439.65 213.14,440.14 222.1,439.32 227.95,438.02 230.78,437.03 236.19,434.45 251.16,424.47 256.35,421.47 261.91,419.23 267.79,418.07 273.78,418.08 282.62,419.72 291.17,422.51 305.17,427.9 310.94,429.51 319.85,430.73 325.85,430.69 331.81,430.02 340.61,428.15 375.16,418.05 419.01,407.98 427.85,406.28 436.76,405.02 445.74,404.36 451.73,404.28 460.73,404.64 469.69,405.46 511.3,411.12 535.15,413.8 559.06,415.86 597.97,418.55"
            fill="none" stroke="#000000" stroke-width="1" />
        <polyline id="SvgjsPolyline2084"
            points="3.77,299.55 4.44,314.54 5.71,326.47 8.22,341.25 10.97,352.93 14.36,364.44 19.5,378.53 24.28,389.54 31.02,402.94 38.5,415.94 48.29,431.04 58.84,445.62 70.16,459.61 78.28,468.44 87.14,476.53 94.54,481.64 99.96,484.2 102.82,485.1 108.74,485.94 111.74,485.83 117.61,484.63 123.17,482.39 128.39,479.44 133.34,476.05 154.41,459.18 161.79,454.03 169.77,449.9 175.5,448.13 178.46,447.66 184.45,447.63 187.42,448.05 193.23,449.56 198.84,451.68 217.91,460.47 223.47,462.73 232.08,465.3 238.02,466.07 244.02,466.03 249.95,465.17 255.66,463.35 272.14,456.12 277.88,454.38 283.8,453.44 292.79,453.57 307.61,455.79 316.6,455.69 322.54,454.86 328.4,453.56 354.37,446.2 366.2,444.2 378.18,443.59 408.15,444.79 420.14,444.6 432.08,443.35 452.8,439.97 464.75,438.9 473.75,438.85 485.72,439.62 542.32,446.3 599.12,451.15"
            fill="none" stroke="#000000" stroke-width="1" />
        <polyline id="SvgjsPolyline2085"
            points="24.49,301.19 24.94,289.2 26.33,274.26 28.18,262.41 30.7,250.68 33.87,239.11 38.68,224.9 44.35,211.02 49.44,200.15 56.39,186.86 65.53,171.35 73.79,158.83 82.78,146.83 90.73,137.85 97.4,131.82 102.33,128.41 104.98,126.99 110.61,124.97 113.57,124.48 116.57,124.39 119.55,124.7 125.31,126.33 128.05,127.56 133.24,130.56 140.48,135.9 165.12,157.84 185.6,175.44 192.16,181.6 200.24,190.47 212.99,207.15 218.88,213.95 223.45,217.82 226.02,219.37 228.77,220.55 231.67,221.31 234.65,221.65 240.62,221.22 246.44,219.77 252.07,217.7 265.53,211.09 294.09,194.57 304.7,188.96 310.22,186.61 315.92,184.74 324.76,183.11 333.75,183.02 342.66,184.23 354.32,187.06 388.91,197.02 406.38,201.35 424.07,204.64 433.02,205.57 439.01,205.85 451.01,205.64 462.96,204.59 507.52,198.32 534.35,195.34 561.27,193.16 597.19,190.84"
            fill="none" stroke="#000000" stroke-width="1" />
        <polyline id="SvgjsPolyline2086"
            points="8.61,302.29 9.18,287.3 10.39,275.36 12.26,263.51 14.8,251.79 18.89,237.36 22.88,226.04 27.46,214.95 33.94,201.43 41.17,188.28 50.66,172.99 60.93,158.21 72,144.02 79.98,135.06 88.73,126.86 96.08,121.69 101.5,119.14 104.37,118.25 110.31,117.5 113.3,117.66 119.14,118.98 124.66,121.32 129.84,124.35 134.74,127.81 157.77,147.03 164.93,152.47 169.93,155.79 177.82,160.11 183.33,162.47 189.01,164.43 206.3,169.4 211.94,171.45 217.34,174.06 224.8,179.07 238.29,190.98 243.02,194.68 248.2,197.7 253.88,199.56 259.85,200.01 262.84,199.75 268.71,198.51 274.4,196.61 279.95,194.33 301.57,183.92 307.09,181.57 315.7,178.98 324.61,177.81 333.59,178.16 342.45,179.71 351.16,181.98 382.82,191.3 400.25,195.79 414.87,199.13 429.66,201.6 441.62,202.49 450.62,202.43 462.59,201.57 510.14,195.05 534,192.41 563.89,189.96 599.82,187.61"
            fill="none" stroke="#000000" stroke-width="1" />
        <polyline id="SvgjsPolyline2087"
            points="7.06,301.07 7.7,286.09 8.97,274.16 10.89,262.31 14.23,247.69 18.59,233.34 22.77,222.1 27.54,211.09 34.25,197.67 43.24,182.08 53.08,167.01 63.68,152.46 75.13,138.58 81.31,132.04 85.68,127.93 92.76,122.39 97.95,119.38 100.7,118.19 106.49,116.66 112.47,116.51 115.44,116.96 121.16,118.75 126.53,121.4 131.59,124.63 136.41,128.2 154.86,143.55 162.01,149.01 169.59,153.85 174.96,156.52 180.59,158.59 189.41,160.35 195.39,160.71 213.39,160.61 222.31,161.76 225.24,162.41 230.9,164.38 236.22,167.14 251.08,177.29 256.29,180.25 261.89,182.39 264.82,183.04 270.79,183.45 273.79,183.24 279.69,182.2 288.3,179.58 302.25,174.07 307.93,172.15 316.74,170.35 325.72,170.07 331.69,170.69 340.5,172.5 377.95,183.37 418.87,192.8 427.71,194.49 436.63,195.72 445.6,196.36 451.6,196.42 460.59,196.03 469.55,195.2 514.14,189.15 535.02,186.85 558.93,184.79 597.84,182.11"
            fill="none" stroke="#000000" stroke-width="1" />
        <polyline id="SvgjsPolyline2088"
            points="169.79,150.35 175.5,152.17 181.44,152.9 184.44,152.81 190.36,151.84 198.88,148.99 218.06,140.44 226.5,137.32 232.33,135.89 241.29,135.17 247.26,135.67 253.05,137.22 272.3,145.59 278.06,147.25 281.01,147.78 283.99,148.09 289.99,148.08 307.78,145.46 316.77,145.51 325.66,146.9 354.54,154.99 366.35,157.09 378.32,157.86 408.31,157.17 420.3,157.58 429.24,158.57 452.93,162.4 461.89,163.24 470.88,163.41 482.86,162.77 539.47,156.07 563.36,153.81 599.25,150.95"
            fill="none" stroke="#000000" stroke-width="1" />
        <polyline id="SvgjsPolyline2089"
            points="2.8,301.83 3.18,289.84 4.57,274.91 6.96,260.11 9.62,248.4 12.93,236.87 17.96,222.74 23.93,208.99 29.32,198.27 36.74,185.23 46.48,170.1 58.82,153.11 70.22,139.18 78.4,130.41 87.33,122.4 94.79,117.38 100.25,114.92 103.13,114.08 106.08,113.55 112.07,113.54 117.92,114.85 123.45,117.16 128.65,120.15 133.58,123.56 152.33,138.53 162.21,145.34 167.55,148.06 170.35,149.14 176.19,150.49 179.18,150.7 185.14,150.15 188.06,149.46 193.72,147.48 201.86,143.65 217.85,135.38 228.87,130.64 237.55,128.31 243.52,127.86 246.52,128.06 252.38,129.3 258.02,131.33 269.04,136.09 277.62,138.76 283.55,139.63 286.55,139.76 292.54,139.5 304.46,138.19 313.44,138.62 322.29,140.26 348.29,147.51 354.18,148.64 363.13,149.52 375.12,149.28 407.9,145.49 422.88,144.72 434.85,145.37 455.62,148.51 464.56,149.53 473.54,149.94 482.54,149.73 497.48,148.44 551.13,142.25 598.95,138.14"
            fill="none" stroke="#000000" stroke-width="1" />
        <polyline id="SvgjsPolyline2090"
            points="36.39,302.14 36.42,299.14 36.77,311.14 37.77,323.09 39.46,334.97 42.5,349.66 45.63,361.24 49.33,372.65 54.69,386.66 59.5,397.65 66.11,411.12 73.34,424.26 81.26,437 88.21,446.77 93.96,453.7 100.38,460 105.18,463.59 107.78,465.09 113.37,467.23 116.32,467.75 119.31,467.84 122.3,467.52 128.03,465.79 130.74,464.52 135.88,461.42 142.99,455.92 149.66,449.88 158.18,441.43 174.46,423.8 185.7,409.74 201.23,387.65 207.09,380.84 211.7,377.01 214.29,375.49 217.04,374.31 222.9,373.1 228.89,373.24 234.79,374.32 240.53,376.04 246.13,378.2 254.29,382 262.23,386.23 290.66,402.99 303.82,410.19 309.3,412.62 314.96,414.59 323.76,416.42 332.75,416.72 341.68,415.66 353.36,412.93 385.06,403.76 405.42,398.61 423.1,395.26 438.03,393.96 450.03,394.11 461.98,395.12 506.55,401.38 530.39,404.1 557.29,406.37 599.2,409.1"
            fill="none" stroke="#000000" stroke-width="1" />
        <polyline id="SvgjsPolyline2091"
            points="10.38,298.13 10.98,313.12 12.22,325.05 14.13,336.9 17.46,351.52 21.8,365.87 25.97,377.12 30.72,388.14 37.37,401.58 46.28,417.22 56.02,432.36 66.54,446.96 75.98,458.61 84.2,467.35 88.64,471.39 93.39,475.05 98.53,478.14 101.26,479.37 107.03,480.97 113.01,481.18 118.88,480 124.43,477.74 132.13,473.09 139.27,467.62 159.76,450.03 169.3,442.76 179.41,436.31 197.78,426.14 205.15,420.98 213.97,412.85 230.3,395.27 234.99,391.54 237.58,390.03 240.33,388.84 243.22,388.04 246.19,387.66 252.17,388 255.11,388.6 260.83,390.39 271.78,395.29 298.15,409.58 306.23,413.54 311.83,415.69 317.61,417.31 326.52,418.5 335.5,418.18 344.37,416.67 353.09,414.45 384.77,405.21 410.98,398.73 425.75,396.15 437.7,395.11 449.7,395.15 461.66,396.08 509.2,402.68 536.04,405.6 562.95,407.76 598.88,410.08"
            fill="none" stroke="#000000" stroke-width="1" />
        <polyline id="SvgjsPolyline2092"
            points="0.66,374.83 4.78,386.09 8.3,394.38 12.16,402.51 17.81,413.09 24,423.37 28.96,430.88 35.94,440.64 43.27,450.14 50.93,459.38 60.91,470.57 69.29,479.16 75.87,485.3 82.83,491.01 90.31,496 95.68,498.66 101.39,500.49 107.34,501.19 110.33,501.05 113.3,500.6 119.03,498.87 127.07,494.83 144.51,483.15 149.67,480.1 155.14,477.63 158.01,476.77 163.96,476.1 166.94,476.39 172.69,478.07 178.07,480.71 191.11,488.11 199.36,491.7 225.23,499.41 250.6,508.64 256.43,510.04 259.4,510.44 265.4,510.49 268.37,510.14 274.23,508.85 291.52,503.85 309.33,501.36 332.63,495.65 338.57,494.8 344.56,494.59 353.51,495.51 368.19,498.58 377.06,500.1 386.01,501.03 412.94,502.89 442.65,507.02 448.64,507.34 454.64,507.22 481.46,504.17 490.45,503.71 499.44,503.81 517.39,505.12 562.15,509.8 598,513.1"
            fill="none" stroke="#000000" stroke-width="1" />
        <polyline id="SvgjsPolyline2093"
            points="0.26,325.16 2.05,337.02 4.48,348.77 7.56,360.37 11.28,371.77 15.64,382.95 20.59,393.88 26.1,404.54 32.1,414.93 40.2,427.56 50.66,442.2 61.85,456.3 71.78,467.54 80.33,475.96 87.27,481.67 94.92,486.41 100.49,488.61 106.38,489.68 109.38,489.7 115.29,488.77 120.93,486.74 126.24,483.95 131.27,480.68 150.3,466.06 157.78,461.07 163.14,458.38 165.96,457.36 171.85,456.28 177.82,456.71 183.56,458.45 191.61,462.45 212.34,474.54 225.7,481.36 233.92,485.02 239.56,487.07 245.37,488.54 248.34,488.94 254.33,488.94 260.23,487.86 277.23,481.96 285.97,479.85 291.94,479.29 303.93,479.27 309.89,478.59 318.69,476.72 338.96,471.24 347.86,469.92 353.85,469.76 359.83,470.17 365.77,471.04 409.89,479.9 421.72,481.9 430.66,482.91 436.65,483.15 445.65,482.83 475.42,479.22 490.41,478.94 505.37,479.97 553.09,485.21 597.9,489.3"
            fill="none" stroke="#000000" stroke-width="1" />
        <polyline id="SvgjsPolyline2094"
            points="2.56,298.6 2.96,310.59 4.37,325.52 6.23,337.37 9.48,352.01 12.8,363.54 17.86,377.66 22.58,388.69 29.26,402.12 38.27,417.7 48.17,432.73 60.67,449.6 70.25,461.14 78.45,469.9 87.4,477.89 94.88,482.87 100.35,485.31 103.23,486.14 109.18,486.8 112.17,486.61 118.01,485.28 123.53,482.95 128.73,479.95 133.66,476.53 152.42,461.57 162.33,454.82 167.7,452.15 170.52,451.12 176.38,449.88 179.37,449.74 185.32,450.43 193.85,453.27 217.87,465.58 228.85,470.42 237.49,472.91 243.45,473.51 246.45,473.38 252.34,472.3 258.01,470.36 271.86,464.6 280.56,462.36 289.53,461.83 304.46,463.2 313.44,462.7 322.27,461 348.29,453.8 354.19,452.74 363.16,451.99 375.14,452.44 407.86,456.73 422.82,457.77 428.82,457.73 437.79,457.02 464.51,453.21 473.5,452.73 482.49,452.87 497.44,454.08 551.09,460.24 598.91,464.39"
            fill="none" stroke="#000000" stroke-width="1" />
        <polyline id="SvgjsPolyline2095"
            points="36.64,296 37.35,284.02 38.64,272.09 40.6,260.26 43.2,248.54 46.42,236.98 51.23,222.78 55.65,211.62 61.81,197.95 68.62,184.58 76.06,171.56 84.22,158.98 91.48,149.43 97.57,142.81 104.5,137.08 109.75,134.19 115.5,132.54 118.49,132.32 121.48,132.52 124.42,133.11 130.01,135.25 137.66,139.98 144.64,145.65 151.24,151.77 159.7,160.28 175.85,178.03 185.15,189.79 200.67,211.88 206.47,218.75 211.01,222.67 213.55,224.26 219.14,226.39 222.1,226.89 228.09,226.88 234,225.89 239.77,224.23 245.38,222.12 253.56,218.38 261.52,214.17 289.95,197.42 303.08,190.18 308.54,187.69 314.18,185.65 319.99,184.17 325.94,183.37 334.93,183.43 343.82,184.75 355.46,187.66 387.17,196.82 404.62,201.21 422.29,204.62 437.22,206.01 449.21,205.93 461.17,204.97 505.74,198.73 535.55,195.41 562.46,193.26 598.39,190.95"
            fill="none" stroke="#000000" stroke-width="1" />
        <polyline id="SvgjsPolyline2096"
            points="10.46,302.11 11.05,287.12 12.27,275.19 14.17,263.34 17.49,248.71 21.81,234.36 25.97,223.1 30.7,212.07 37.35,198.63 46.24,182.98 55.97,167.84 66.47,153.23 75.91,141.57 84.11,132.82 88.55,128.77 93.29,125.1 98.41,121.99 101.14,120.74 106.9,119.11 112.88,118.87 118.76,120.01 124.32,122.25 132.02,126.88 139.17,132.35 159.65,149.94 169.17,157.24 176.69,162.19 194.99,172.48 202.51,177.41 207.17,181.19 213.66,187.43 225.71,200.79 229.93,205.06 234.61,208.8 237.2,210.32 239.95,211.52 242.83,212.32 245.81,212.7 251.78,212.36 260.44,209.96 271.39,205.05 297.75,190.73 305.81,186.74 311.39,184.55 317.16,182.88 326.05,181.6 335.04,181.85 340.98,182.71 346.84,183.97 387.22,195.51 401.75,199.23 413.46,201.84 428.27,204.21 440.24,205.02 452.23,204.76 464.18,203.68 505.77,197.81 532.6,194.76 559.5,192.53 598.42,189.99"
            fill="none" stroke="#000000" stroke-width="1" />
        <polyline id="SvgjsPolyline2097"
            points="48.34,299.19 48.39,302.19 48.65,290.2 49.54,278.23 51.1,266.33 53.93,251.6 56.85,239.97 60.33,228.48 64.3,217.16 69.91,203.25 76.2,189.64 81.74,178.99 87.79,168.63 94.54,158.71 100.26,151.77 106.84,145.65 111.9,142.44 117.55,140.47 120.52,140.1 123.52,140.19 129.34,141.6 132.09,142.79 137.28,145.8 144.4,151.29 155.17,161.72 167.09,175.2 176.33,187.02 193.65,211.51 199.4,218.43 203.8,222.49 208.85,225.72 211.61,226.88 217.45,228.2 223.45,228.31 229.39,227.52 235.21,226.08 243.69,223.07 251.89,219.36 259.87,215.2 293.49,195.44 304.05,189.75 309.54,187.33 315.21,185.38 324.02,183.59 333.01,183.34 341.94,184.42 353.61,187.17 382.42,195.55 405.67,201.48 423.36,204.8 429.32,205.51 438.3,206.07 450.29,205.9 462.25,204.88 506.81,198.61 533.64,195.61 560.55,193.42 599.47,190.9"
            fill="none" stroke="#000000" stroke-width="1" />
        <polyline id="SvgjsPolyline2098"
            points="48.28,298.14 48.69,310.13 50.01,325.07 51.75,336.95 54.1,348.71 57.04,360.34 60.53,371.83 64.51,383.15 70.14,397.05 75.12,407.96 81.99,421.3 88.06,431.65 94.83,441.55 100.58,448.47 107.21,454.53 112.31,457.67 115.09,458.8 118,459.54 120.98,459.84 123.97,459.69 129.76,458.18 132.5,456.95 137.66,453.89 144.74,448.35 155.49,437.9 167.38,424.39 178.37,410.13 193.92,388.07 199.72,381.19 204.18,377.18 209.28,374.05 212.07,372.95 217.93,371.74 223.93,371.72 229.86,372.57 235.67,374.06 244.14,377.11 252.32,380.85 260.29,385.03 291.31,403.3 304.49,410.46 309.99,412.84 315.68,414.75 324.5,416.46 333.49,416.64 342.41,415.49 354.08,412.7 388.67,402.75 406.14,398.41 423.84,395.13 432.79,394.2 438.78,393.92 450.77,394.12 462.73,395.18 507.28,401.45 531.13,404.15 558.04,406.4 599.95,409.12"
            fill="none" stroke="#000000" stroke-width="1" />
        <polyline id="SvgjsPolyline2099"
            points="257.97,297.74 258.27,306.73 259.1,315.69 260.51,324.58 261.82,330.43 264.4,339.05 266.59,344.64 270.6,352.69 273.78,357.78 277.32,362.61 283.27,369.37 287.59,373.53 294.51,379.27 301.86,384.46 309.54,389.16 317.62,393.12 323.25,395.16 329.07,396.62 335.01,397.44 341.01,397.63 347,397.31 358.86,395.55 388.17,389.15 402.92,386.42 420.79,384.3 435.78,383.94 444.77,384.4 456.7,385.62 498.25,391.78 525.06,394.97 554.95,397.45 599.87,400.21"
            fill="none" stroke="#000000" stroke-width="1" />
        <polyline id="SvgjsPolyline2100"
            points="0.03,405.04 8.49,420.92 14.86,431.09 19.98,438.49 32.87,455.06 46.82,470.76 55.18,479.36 63.85,487.65 70.62,493.59 77.68,499.16 82.62,502.56 87.81,505.58 93.28,508.04 99.04,509.7 102,510.14 107.99,510.12 110.96,509.67 116.71,507.98 124.8,504.07 140.07,494.54 145.33,491.66 150.9,489.46 156.81,488.47 159.8,488.59 165.61,490.03 171.06,492.53 181.62,498.23 190,501.46 198.82,503.23 216.73,504.98 225.6,506.49 234.28,508.86 254.15,515.65 260.02,516.86 263.01,517.14 266.01,517.18 271.96,516.53 292.23,511.07 307.04,508.76 330.38,503.18 339.32,502.25 348.29,502.85 365.94,506.39 374.85,507.64 383.83,508.16 404.83,508.31 413.82,508.74 446.55,512.87 452.54,513.06 458.54,512.81 485.36,509.79 500.36,509.57 518.31,510.81 560.09,515.14 598.92,518.73"
            fill="none" stroke="#000000" stroke-width="1" />
        <polyline id="SvgjsPolyline2101"
            points="248.28,301.46 249.17,283.49 250.27,274.56 251.92,265.71 254.27,257.03 256.31,251.39 260.17,243.26 263.29,238.14 266.8,233.28 272.71,226.49 279.21,220.27 286.15,214.55 295.92,207.58 303.52,202.76 311.46,198.53 319.83,195.23 325.64,193.74 331.58,192.92 337.57,192.77 343.55,193.21 355.36,195.34 390.17,204.51 407.73,208.42 422.57,210.63 437.54,211.38 446.54,211.09 458.49,210.02 506,203.22 526.86,200.84 556.76,198.33 598.67,195.69"
            fill="none" stroke="#000000" stroke-width="1" />
        <polyline id="SvgjsPolyline2102"
            points="60.31,302.07 60.34,299.07 60.65,311.06 61.55,323.03 63.07,334.93 65.17,346.74 67.83,358.44 71.01,370.01 74.68,381.44 79.92,395.49 84.64,406.52 89.88,417.32 95.75,427.78 100.74,435.27 106.45,442.22 110.84,446.3 115.86,449.57 118.62,450.73 121.53,451.47 124.51,451.74 127.5,451.52 133.24,449.84 138.53,447.03 145.72,441.62 154.38,433.31 164.28,422.05 173.48,410.21 187.55,390.76 195.26,381.58 199.7,377.55 204.72,374.29 210.3,372.1 216.2,371.11 222.2,371.15 231.07,372.62 236.83,374.29 245.24,377.5 253.38,381.33 261.32,385.57 289.72,402.37 302.84,409.63 308.29,412.14 313.92,414.21 319.72,415.72 325.66,416.56 334.65,416.54 340.6,415.8 346.49,414.63 389.8,402.44 413.15,396.92 427.97,394.62 439.94,393.88 448.94,394.02 460.9,394.97 505.47,401.21 532.29,404.25 559.2,406.48 598.12,409"
            fill="none" stroke="#000000" stroke-width="1" />
        <polyline id="SvgjsPolyline2103"
            points="60.29,300.08 60.76,288.09 61.75,276.13 63.3,264.24 65.45,252.43 68.14,240.74 71.36,229.18 75.05,217.76 80.33,203.72 85.08,192.71 90.36,181.93 96.29,171.5 101.34,164.05 107.14,157.18 111.62,153.2 116.75,150.1 119.56,149.06 122.49,148.46 125.49,148.36 128.46,148.72 134.14,150.62 139.36,153.57 146.47,159.08 155.05,167.45 163,176.45 172.28,188.23 188.15,210.07 191.9,214.75 195.96,219.16 200.5,223.08 205.63,226.18 208.4,227.32 214.23,228.69 220.22,228.96 226.18,228.37 234.94,226.31 243.41,223.27 251.6,219.56 259.58,215.39 293.2,195.63 303.75,189.92 309.23,187.47 314.89,185.49 323.69,183.64 332.67,183.33 341.6,184.37 353.29,187.09 390.78,197.82 408.27,202.07 423.02,204.76 437.96,206.07 449.95,205.93 461.91,204.92 506.47,198.66 533.3,195.65 560.21,193.45 599.13,190.93"
            fill="none" stroke="#000000" stroke-width="1" />
        <polyline id="SvgjsPolyline2104"
            points="234.72,298.95 235.02,310.94 235.6,319.92 236.55,328.87 238.03,337.75 240.25,346.46 242.3,352.1 244.91,357.5 248.08,362.59 253.66,369.65 259.93,376.1 266.77,381.95 276.34,389.18 288.77,397.58 299.03,403.8 306.99,407.99 315.35,411.31 321.15,412.84 327.08,413.71 333.07,413.89 342.03,413.03 353.75,410.48 385.49,401.46 405.87,396.4 414.69,394.63 423.59,393.27 438.54,392.21 447.54,392.36 459.5,393.3 507.04,399.97 533.87,402.94 557.79,404.89 599.7,407.59"
            fill="none" stroke="#000000" stroke-width="1" />
        <polyline id="SvgjsPolyline2105"
            points="269.79,297.91 269.86,300.9 270.29,291.92 270.97,285.96 272.71,277.13 274.36,271.36 277.57,262.96 280.23,257.58 283.3,252.43 286.77,247.53 290.61,242.93 296.99,236.59 303.96,230.9 311.22,225.57 318.8,220.73 324.08,217.88 329.57,215.46 335.26,213.57 344.09,211.87 350.08,211.49 356.07,211.61 368,212.89 394.63,217.33 406.53,218.92 418.49,219.88 433.48,219.93 442.46,219.37 454.39,218.06 498.89,211.36 522.72,208.55 555.61,205.85 597.53,203.35"
            fill="none" stroke="#000000" stroke-width="1" />
        <polyline id="SvgjsPolyline2106"
            points="269.49,299.56 270.54,311.51 272.12,320.36 273.6,326.18 275.47,331.88 279.04,340.13 281.93,345.39 285.23,350.4 290.89,357.39 295.1,361.67 299.6,365.64 306.69,371.17 314.06,376.34 319.17,379.49 327.19,383.56 332.79,385.69 338.59,387.24 344.51,388.17 350.5,388.52 356.49,388.36 368.42,387.05 392.09,383.07 406.95,381.03 418.91,380.1 433.9,380.08 442.88,380.67 454.81,382 496.33,388.28 520.16,391.19 547.05,393.55 597.96,396.68"
            fill="none" stroke="#000000" stroke-width="1" />
        <polyline id="SvgjsPolyline2107"
            points="246.5,299.44 247.42,317.41 248.88,329.32 250.52,338.17 251.99,343.98 254.91,352.49 257.4,357.95 262,365.68 265.6,370.47 271.64,377.14 278.26,383.24 287.68,390.67 297.62,397.38 305.39,401.93 313.52,405.77 319.18,407.74 325.02,409.12 330.98,409.82 336.97,409.84 342.95,409.29 354.72,406.98 389.45,397.52 406.98,393.43 421.78,391.01 436.74,390.01 448.73,390.34 460.67,391.46 505.22,397.85 529.06,400.57 555.97,402.82 597.88,405.5"
            fill="none" stroke="#000000" stroke-width="1" />
        <polyline id="SvgjsPolyline2108"
            points="1.44,432.42 11.64,447.24 22.95,461.24 37.22,476.64 52.38,491.17 66.1,502.82 73.32,508.19 78.33,511.48 83.55,514.45 89.01,516.92 94.73,518.71 97.68,519.27 103.66,519.57 106.65,519.3 112.49,517.97 120.78,514.49 136.36,505.48 141.72,502.79 147.39,500.84 150.34,500.33 153.34,500.22 156.32,500.54 162.05,502.27 175.49,508.92 181.12,510.98 184.03,511.69 186.99,512.17 192.98,512.53 213.94,511.39 219.94,511.43 225.92,511.96 231.82,513.03 237.61,514.58 254.69,520.25 263.52,521.94 269.51,521.94 275.44,521.03 292.81,516.33 307.59,513.8 328.01,508.9 336.94,507.92 345.92,508.47 363.57,511.97 372.5,513.08 381.49,513.36 402.48,512.7 414.48,512.84 423.44,513.6 441.26,516.16 450.22,516.95 456.22,516.96 462.2,516.56 480.07,514.36 489.04,513.66 498.04,513.51 507.03,513.84 521.98,515.05 560.77,519.05 599.61,522.64"
            fill="none" stroke="#000000" stroke-width="1" />
        <polyline id="SvgjsPolyline2109"
            points="236.43,300.71 236.77,288.71 237.55,276.74 238.55,267.8 240.08,258.93 242.38,250.23 244.48,244.61 247.14,239.24 250.39,234.2 254.16,229.53 260.53,223.18 269.79,215.56 279.5,208.5 292.04,200.28 302.41,194.24 310.53,190.38 316.18,188.36 322,186.93 327.95,186.16 333.95,186.09 342.89,187.06 354.59,189.7 386.33,198.72 406.72,203.75 415.55,205.48 424.45,206.8 439.42,207.77 451.41,207.39 463.35,206.23 504.92,200.28 531.75,197.23 558.66,195.02 597.58,192.51"
            fill="none" stroke="#000000" stroke-width="1" />
        <polyline id="SvgjsPolyline2110"
            points="258.86,301.92 259.19,292.93 260.06,283.98 261.54,275.1 263.71,266.37 265.59,260.67 268.92,252.31 273.03,244.31 276.26,239.26 279.86,234.46 285.87,227.76 290.23,223.64 297.2,217.95 304.58,212.81 312.29,208.17 320.41,204.3 326.08,202.34 331.92,200.99 337.88,200.31 343.88,200.25 349.86,200.73 361.68,202.76 390.89,209.61 405.6,212.52 420.47,214.44 435.46,214.96 444.45,214.59 456.39,213.44 500.92,206.92 527.74,203.82 554.64,201.6 599.56,198.82"
            fill="none" stroke="#000000" stroke-width="1" />
        <polyline id="SvgjsPolyline2111"
            points="72.27,299.12 72.31,302.12 72.54,290.12 73.3,278.15 74.63,266.22 76.5,254.37 81.02,233.86 87.04,213.75 91.16,202.48 95.84,191.43 99.8,183.35 104.26,175.54 109.44,168.19 113.47,163.74 118.14,159.99 120.76,158.54 123.57,157.49 126.51,156.92 129.51,156.88 132.47,157.34 135.34,158.22 140.7,160.89 147.93,166.23 154.48,172.4 162.53,181.3 188.46,214.33 194.8,220.7 199.6,224.29 202.21,225.78 204.94,227.02 210.69,228.68 216.66,229.29 222.65,229.02 228.57,228.05 234.37,226.55 245.61,222.37"
            fill="none" stroke="#000000" stroke-width="1" />
        <polyline id="SvgjsPolyline2112"
            points="72.26,298.17 72.6,310.16 73.45,322.13 74.4,331.08 76.15,342.95 78.43,354.73 81.21,366.41 87.24,386.51 91.37,397.78 94.83,406.09 100.04,416.9 104.52,424.7 109.74,432.03 113.8,436.44 118.52,440.12 121.17,441.53 123.99,442.53 126.95,443.02 129.95,442.99 132.9,442.47 138.47,440.29 141.08,438.81 145.96,435.33 152.68,429.34 160.87,420.58 168.5,411.32 184.9,389.87 190.81,383.08 197.52,377.11 202.64,373.99 208.24,371.88 214.15,370.85 220.14,370.78 226.1,371.47 231.96,372.76 240.51,375.54 246.06,377.82 254.17,381.71"
            fill="none" stroke="#000000" stroke-width="1" />
        <polyline id="SvgjsPolyline2113"
            points="222.67,298.91 222.7,301.91 223.36,277.92 224.44,265.97 225.84,257.08 227.23,251.25 229.16,245.57 231.83,240.2 235.35,235.35 239.6,231.13 246.77,225.69 284.77,201.59 302.99,191.16 311.22,187.52 316.93,185.69 322.8,184.48 328.78,183.95 334.77,184.1 340.73,184.82 352.44,187.41 387.04,197.33 407.43,202.37 416.25,204.14 425.15,205.5 431.11,206.11 440.1,206.52 449.1,206.35 461.06,205.38 505.62,199.12 532.45,196.09 559.35,193.87 598.27,191.35"
            fill="none" stroke="#000000" stroke-width="1" />
        <polyline id="SvgjsPolyline2114"
            points="222.8,299.5 223.67,323.48 224.47,332.44 225.76,341.35 227.03,347.21 228.8,352.94 231.26,358.41 234.55,363.42 238.62,367.82 245.64,373.43 281.02,396.07 301.74,408.18 309.9,411.96 315.57,413.91 321.41,415.28 327.36,415.97 333.36,415.98 342.29,414.9 353.97,412.17 382.79,403.82 406.05,397.92 423.75,394.67 432.7,393.76 438.69,393.49 450.69,393.72 462.64,394.79 507.19,401.08 534.03,404.06 557.95,406.02 599.86,408.74"
            fill="none" stroke="#000000" stroke-width="1" />
        <polyline id="SvgjsPolyline2115"
            points="281.49,300.79 281.72,297.8 282,303.79 282.82,309.73 284.34,315.53 286.51,321.12 290.87,328.98 296.41,336.06 300.66,340.29 309.72,348.17 316.77,353.76 324.07,359.02 331.69,363.8 336.99,366.61 342.49,369.02 348.16,370.96 356.94,372.92 362.9,373.63 368.89,373.94 377.89,373.91 410.86,372.66 419.86,372.75 431.84,373.42 446.75,375.04 494.18,382.4 518,385.29 547.9,387.82 598.81,390.77"
            fill="none" stroke="#000000" stroke-width="1" />
        <polyline id="SvgjsPolyline2116"
            points="280.2,302.77 280.99,293.82 282.34,287.98 284.19,282.27 286.49,276.73 289.36,271.46 294.64,264.19 298.73,259.8 307.7,251.83 321.95,240.84 329.5,235.95 334.75,233.05 340.2,230.53 345.83,228.47 354.57,226.34 360.51,225.55 366.5,225.18 375.5,225.19 411.46,226.81 423.46,226.63 432.44,226.09 447.35,224.47 491.82,217.55 518.61,214.26 548.5,211.74 599.42,208.78"
            fill="none" stroke="#000000" stroke-width="1" />
        <polyline id="SvgjsPolyline2117"
            points="0.16,451.9 11.4,465.96 23.64,479.15 36.63,491.6 52.56,505.28 64.49,514.37 71.98,519.37 77.16,522.39 82.53,525.06 88.13,527.2 93.96,528.62 96.93,528.99 102.93,528.95 105.9,528.54 111.69,527.01 119.94,523.43 133.1,516.23 138.54,513.72 144.29,512.01 147.26,511.64 150.26,511.69 156.11,512.97 169.74,519.21 175.4,521.16 178.34,521.77 181.32,522.11 187.31,522.06 193.27,521.31 213.91,517.49 219.88,516.92 225.88,516.9 234.79,518.09 240.6,519.59 257.76,525.01 263.66,526.1 266.65,526.32 269.65,526.3 275.6,525.57 293.01,521.02 307.75,518.29 325.25,514.07 331.18,513.16 337.17,512.88 343.15,513.31 360.81,516.73 369.74,517.82 378.74,517.97 402.69,516.52 414.69,516.35 423.67,516.94 444.47,519.78 453.45,520.38 462.44,520.01 486.28,517.29 495.27,516.92 504.27,517.06 519.23,518.1 599.85,525.94"
            fill="none" stroke="#000000" stroke-width="1" />
        <polyline id="SvgjsPolyline2118"
            points="84.25,302.01 84.28,299.01 84.52,311.01 85.25,322.99 87.75,343.84 91.74,364.45 94.69,376.08 97.25,384.71 101.15,396.05 104.52,404.4 108.38,412.52 111.32,417.76 114.65,422.75 118.51,427.33 123.1,431.18 125.72,432.63 128.54,433.63 131.51,434.08 134.5,433.96 137.43,433.33 142.93,430.96 147.93,427.66 154.75,421.79 161.02,415.33 166.93,408.55 182.12,389.97 188.2,383.34 195.01,377.46 200.11,374.32 202.84,373.08 205.67,372.08 211.53,370.83 217.52,370.52 223.5,370.98 229.39,372.07 235.18,373.66 240.84,375.64 249.1,379.2"
            fill="none" stroke="#000000" stroke-width="1" />
        <polyline id="SvgjsPolyline2119"
            points="84.24,302.88 84.5,290.88 85.21,278.91 86.37,266.96 88.02,255.08 92.09,234.48 95.09,222.86 98.61,211.39 102.73,200.12 106.31,191.87 110.46,183.88 113.65,178.8 117.33,174.07 121.68,169.95 124.17,168.28 126.88,166.99 129.77,166.21 132.75,165.99 135.73,166.32 138.62,167.13 144.01,169.73 151.25,175.07 157.77,181.26 163.85,187.9 184.95,213.27 189.12,217.58 193.64,221.52 198.61,224.88 204.05,227.39 209.84,228.92 215.81,229.48 221.8,229.22 230.65,227.63 236.41,225.95 244.81,222.73 252.96,218.92 260.9,214.68 291.9,196.38 302.41,190.59 307.85,188.05 313.46,185.94 319.26,184.39 325.19,183.49 334.18,183.43 343.09,184.66 354.74,187.5 386.44,196.67 406.81,201.75 415.63,203.56 424.52,204.97 433.47,205.86 439.47,206.11 448.46,206 460.43,205.09 507.97,198.47 531.82,195.8 558.72,193.56 597.64,191.03"
            fill="none" stroke="#000000" stroke-width="1" />
        <polyline id="SvgjsPolyline2120"
            points="210.63,298.87 210.65,301.87 211.22,277.88 211.85,268.91 212.9,259.97 213.97,254.07 215.52,248.27 217.83,242.75 219.39,240.18 223.36,235.71 228.22,232.2 254.92,218.53 275.61,206.38"
            fill="none" stroke="#000000" stroke-width="1" />
        <polyline id="SvgjsPolyline2121"
            points="210.86,299.96 211.62,323.94 212.32,332.92 213.49,341.84 214.68,347.72 216.43,353.45 219.05,358.84 220.78,361.29 225.06,365.47 230.08,368.75 256.76,382.47 290.26,402.42 300.72,408.3 308.85,412.15 314.5,414.18 320.32,415.63 326.26,416.41 332.26,416.51 341.2,415.53 349.99,413.63 384.6,403.7 407.88,397.88 416.7,396.12 425.6,394.77 440.56,393.76 449.55,393.95 461.51,394.94 506.07,401.19 532.9,404.21 559.81,406.42 598.73,408.94"
            fill="none" stroke="#000000" stroke-width="1" />
        <polyline id="SvgjsPolyline2122"
            points="292.55,298.3 293.06,301.26 294.35,295.41 295.52,292.65 297.1,290.1 301.11,285.65 308.04,279.92 320.32,271.3 338.02,260 351.14,252.75 362.14,247.97 373.6,244.43 388.32,241.56 432.96,235.93 480.31,228.02 504.08,224.75 521.98,222.9 539.93,221.47 599.84,218.18"
            fill="none" stroke="#000000" stroke-width="1" />
        <polyline id="SvgjsPolyline2123"
            points="289.64,297.8 290.59,303.71 291.62,306.53 294.63,311.7 300.53,318.49 309.64,326.29 326.63,338.63 341.85,348.23 349.82,352.4 355.31,354.81 366.7,358.59 375.49,360.5 384.39,361.79 417.27,364.68 435.14,366.78 485.48,374.94 512.26,378.38 548.13,381.36 599.06,384.13"
            fill="none" stroke="#000000" stroke-width="1" />
        <polyline id="SvgjsPolyline2124"
            points="285.58,300.65 285.9,297.67 287.28,291.84 288.33,289.03 291.08,283.7 294.59,278.84 296.6,276.61 303.18,270.48 317.21,259.2 326.94,252.19 334.47,247.26 342.3,242.83 347.73,240.27 353.31,238.09 359.05,236.33 367.86,234.49 376.79,233.43 415.76,231.87 433.69,230.32 448.55,228.3 492.98,221.19 519.79,218.02 552.69,215.43 597.62,212.95"
            fill="none" stroke="#000000" stroke-width="1" />
        <polyline id="SvgjsPolyline2125"
            points="0.28,471.42 10.39,482.49 23.36,494.97 37.01,506.69 53.67,519.48 66.14,527.81 76.67,533.55 85.05,536.82 90.88,538.22 93.85,538.61 99.84,538.66 102.82,538.32 108.66,536.95 117.01,533.61 133.1,525.54 138.76,523.58 141.7,523.01 144.69,522.8 150.62,523.59 156.26,525.63 167.25,530.44 173.06,531.87 176.05,532.15 179.05,532.13 185,531.4 190.85,530.08 213.96,523.62 219.86,522.52 225.83,521.98 231.83,522.15 237.75,523.05 260.8,529.69 266.74,530.53 269.74,530.6 272.73,530.44 278.65,529.49 293.16,525.68 304.95,523.44 322.45,519.26 328.37,518.25 334.35,517.83 343.31,518.53 360.98,521.94 369.94,522.69 378.94,522.47 402.84,520.3 414.83,519.83 426.8,520.52 447.61,523.31 456.6,523.69 465.58,523.12 486.44,520.7 495.43,520.28 504.42,520.39 522.38,521.64 597.03,528.9"
            fill="none" stroke="#000000" stroke-width="1" />
        <polyline id="SvgjsPolyline2126"
            points="96.22,299.06 96.25,302.06 96.84,281.07 98.79,260.16 102.15,239.44 106.24,221.91 110.69,207.59 113.98,199.21 116.52,193.78 119.44,188.54 122.88,183.63 127.07,179.35 129.52,177.63 132.22,176.33 135.13,175.6 138.12,175.49 141.08,175.96 146.64,178.17 151.69,181.39 156.35,185.18 162.83,191.42 178.92,209.23 185.16,215.71 191.98,221.57 197.01,224.83 202.47,227.32 208.25,228.9 214.2,229.57 223.18,229.12"
            fill="none" stroke="#000000" stroke-width="1" />
        <polyline id="SvgjsPolyline2127"
            points="96.22,298.29 96.97,319.27 98.94,340.17 102.32,360.89 106.43,378.41 110.91,392.73 114.22,401.1 116.78,406.52 119.73,411.74 123.22,416.62 127.47,420.84 129.96,422.51 132.7,423.72 135.62,424.36 138.62,424.38 141.56,423.84 144.39,422.85 149.65,419.97 154.46,416.39 161.08,410.3 181.32,388.16 185.54,383.9 190.04,379.93 194.9,376.42 200.19,373.59 205.85,371.63 211.75,370.6"
            fill="none" stroke="#000000" stroke-width="1" />
        <polyline id="SvgjsPolyline2128"
            points="198.6,298.85 198.62,301.85 199.28,274.86 199.94,265.88 201.05,256.95 202.2,251.07 203.96,245.33 206.74,240.04 208.68,237.75 210.97,235.82 216.29,233.06 236.24,226.54 250,220.59 263.22,213.5 296.8,193.67 304.77,189.5 310.28,187.13 318.89,184.52 324.81,183.58 330.8,183.33 339.76,184.12 351.48,186.65 383.19,195.81 406.45,201.7 421.18,204.53 436.09,206.03"
            fill="none" stroke="#000000" stroke-width="1" />
        <polyline id="SvgjsPolyline2129"
            points="198.88,297.36 199.58,324.35 200.87,339.29 201.78,345.22 203.13,351.06 205.21,356.68 206.67,359.3 208.5,361.67 210.71,363.7 215.91,366.65 235.83,373.29 244.17,376.67 252.29,380.55"
            fill="none" stroke="#000000" stroke-width="1" />
        <polyline id="SvgjsPolyline2130"
            points="296.13,299.23 297.58,301.84 299.63,299.9 362.61,298.39 452.55,295.13 503.54,294.18 599.54,293.61"
            fill="none" stroke="#000000" stroke-width="1" />
        <polyline id="SvgjsPolyline2131"
            points="295.67,302.08 296.52,299.22 298.42,296.92 303.42,293.62 308.81,290.98 336.34,279.06 360.95,267.96 372.02,263.34 386.16,258.33 403.51,253.56 424.02,249.04 456.4,242.65 477.09,239.1 494.92,236.63 515.81,234.46 536.75,232.88 599.67,229.82"
            fill="none" stroke="#000000" stroke-width="1" />
        <polyline id="SvgjsPolyline2132"
            points="295.23,298.55 296.18,301.39 298.02,303.75 300.32,305.66 305.42,308.83 316.11,314.28 351.2,331.29 364.83,337.55 378.83,342.94 396.12,347.91 413.71,351.73 460.86,360.72 478.61,363.71 496.44,366.18 514.33,368.1 538.26,369.96 598.18,372.97"
            fill="none" stroke="#000000" stroke-width="1" />
        <polyline id="SvgjsPolyline2133"
            points="1.79,490.86 14.93,503.15 26.45,512.76 40.81,523.62 53.18,532.09 63.43,538.33 74.15,543.72 82.6,546.78 91.44,548.42 97.43,548.46 100.41,548.13 106.26,546.83 114.67,543.63 130.98,536.02 136.73,534.33 139.7,533.93 142.69,533.9 148.58,535 159.68,539.55 165.35,541.47 171.28,542.3 174.28,542.24 177.26,541.91 183.13,540.64 214.42,530.2 220.23,528.69 226.14,527.69 232.13,527.41 238.1,527.93 243.97,529.17 261.25,534.21 267.17,535.16 273.16,535.22 279.1,534.41 293.64,530.72 305.4,528.36 319.99,524.88 325.89,523.81 331.87,523.31 340.84,523.9 358.52,527.25 367.49,527.93 376.48,527.57 403.29,524.46 415.27,523.69 427.25,524.16 448.07,526.89 457.05,527.34 466.04,526.84 489.89,524.22 504.88,524.06 522.84,525.27 597.49,532.48"
            fill="none" stroke="#000000" stroke-width="1" />
        <polyline id="SvgjsPolyline2134"
            points="108.2,301.98 108.22,298.98 108.8,319.97 110.59,340.89 113.2,358.7 116.98,376.29 121.4,390.62 123.64,396.18 126.29,401.56 129.51,406.62 131.41,408.94 133.57,411.02 136.01,412.75 138.74,413.98 141.68,414.56 144.67,414.48 147.6,413.82 153.05,411.34 158.01,407.97 162.63,404.15 182.01,385.36 188.9,379.57 193.88,376.22 199.22,373.51 204.9,371.6 207.84,370.97 213.8,370.33 219.79,370.46 225.74,371.24 234.47,373.4 242.93,376.46 251.13,380.16 259.12,384.32 269.53,390.28"
            fill="none" stroke="#000000" stroke-width="1" />
        <polyline id="SvgjsPolyline2135"
            points="108.2,302.66 108.8,281.67 110.17,263.72 112.51,245.88 115.96,228.22 119.96,213.77 124.29,202.58 128.65,194.72 132.46,190.1 134.75,188.17 137.34,186.66 140.19,185.73 143.17,185.47 146.14,185.85 149,186.74 154.33,189.49 159.19,192.99 163.75,196.89 180.93,213.65 187.73,219.55 195.2,224.54 200.64,227.06 206.39,228.75 209.35,229.27 212.33,229.59 218.32,229.63 224.29,229 230.17,227.8 235.93,226.14 241.57,224.09"
            fill="none" stroke="#000000" stroke-width="1" />
        <polyline id="SvgjsPolyline2136"
            points="186.57,298.82 186.59,301.82 187.05,277.83 188.4,259.88 190.47,248.07 192.35,242.38 193.7,239.7 195.44,237.26 197.63,235.22 200.22,233.72 203.04,232.72 205.97,232.07 223.79,229.57 229.64,228.22 238.21,225.5"
            fill="none" stroke="#000000" stroke-width="1" />
        <polyline id="SvgjsPolyline2137"
            points="186.9,297.72 187.43,321.71 188.75,339.66 190.77,351.48 192.6,357.19 193.9,359.89 195.59,362.37 197.72,364.47 200.26,366.05 203.06,367.12 208.94,368.29 223.79,370.41 232.52,372.59"
            fill="none" stroke="#000000" stroke-width="1" />
        <polyline id="SvgjsPolyline2138"
            points="296.9,297.99 298.28,300.6 300.99,301.9 303.85,302.79 333.07,309.57 347.6,313.28 362.03,317.4 393.57,327.1 413.81,332.69 434.26,337.48 451.91,340.98 466.71,343.45 481.57,345.49 508.43,348.14 544.37,350.25 598.34,352.18"
            fill="none" stroke="#000000" stroke-width="1" />
        <polyline id="SvgjsPolyline2139"
            points="296.88,302.45 297.98,299.71 300.65,298.35 303.52,297.48 332.83,291.07 347.4,287.5 364.75,282.71 399.26,272.48 416.66,267.88 434.21,263.85 454.82,259.87 481.54,255.97 511.4,253.16 547.35,251.2 598.32,249.45"
            fill="none" stroke="#000000" stroke-width="1" />
        <polyline id="SvgjsPolyline2140"
            points="297.7,299.79 300.58,300.61 303.55,300.99 339.4,304.29 360.25,306.74 431.42,317.69 449.27,319.97 467.18,321.79 488.12,323.33 518.09,324.72 599.07,326.47"
            fill="none" stroke="#000000" stroke-width="1" />
        <polyline id="SvgjsPolyline2141"
            points="296.42,297.78 297.45,300.57 300.17,299.36 303.13,298.9 338.93,295.05 362.7,291.77 418.82,281.79 439.55,278.48 454.42,276.51 472.32,274.63 493.26,273.04 520.23,271.72 598.21,269.82"
            fill="none" stroke="#000000" stroke-width="1" />
        <polyline id="SvgjsPolyline2142"
            points="296.25,302.16 297.24,299.35 300.1,300.18 360.06,302.38 431.93,306.56 467.9,308.15 515.89,309.22 599.88,309.91"
            fill="none" stroke="#000000" stroke-width="1" />
        <polyline id="SvgjsPolyline2143"
            points="0.06,505.89 13.78,517.53 25.73,526.6 40.55,536.82 53.3,544.72 63.85,550.42 74.87,555.15 83.54,557.56 89.48,558.34 95.48,558.31 98.46,557.96 104.31,556.67 112.75,553.57 126.44,547.43 132.14,545.58 135.09,545.02 141.07,544.97 144.02,545.51 146.9,546.34 158.06,550.75 163.86,552.23 166.85,552.5 172.83,552.08 181.54,549.85 218.26,536.74 226.97,534.5 232.93,533.79 235.93,533.74 241.89,534.31 247.75,535.59 259.27,538.97 265.11,540.32 271.07,540.94 274.07,540.91 280.03,540.2 318.02,531.41 326.9,530.02 335.89,530.08 356.56,533.73 365.54,534.24 374.52,533.66 404.22,529.46 416.17,528.41 428.16,528.64 448.99,531.29 457.97,531.79 466.96,531.33 487.82,528.94 502.81,528.47 523.76,529.72 598.42,536.88"
            fill="none" stroke="#000000" stroke-width="1" />
        <polyline id="SvgjsPolyline2144"
            points="120.18,299.01 120.21,302.01 120.53,284.02 121.64,266.05 123.67,248.17 126.23,233.39 129.08,221.74 133.08,210.44 135.8,205.09 137.44,202.58 139.33,200.25 141.52,198.21 144.06,196.61 146.89,195.65 149.87,195.43 152.84,195.87 158.4,198.07 165.91,203.02 182.05,216.45 186.83,220.07 194.49,224.78 199.99,227.18 205.76,228.81 211.69,229.64 217.69,229.72 226.61,228.62"
            fill="none" stroke="#000000" stroke-width="1" />
        <polyline id="SvgjsPolyline2145"
            points="120.18,298.42 120.76,319.41 121.76,334.37 123.81,352.25 126.4,367.03 129.28,378.67 131.12,384.38 133.35,389.95 136.12,395.27 137.79,397.76 139.73,400.05 141.98,402.03 144.57,403.53 147.44,404.37 150.43,404.47 153.38,403.94 158.9,401.62 166.36,396.6 180.17,385.07 187.31,379.58 195.01,374.95 203.41,371.75 209.29,370.6 218.28,370.31 227.19,371.5 235.88,373.83"
            fill="none" stroke="#000000" stroke-width="1" />
        <polyline id="SvgjsPolyline2146"
            points="174.54,298.8 174.56,301.8 175.15,274.81 175.97,262.83 177,253.9 178.03,247.99 179.52,242.18 181.85,236.66 183.54,234.18 185.7,232.12 188.32,230.67 191.22,229.9 197.2,229.64 212.18,230.35 218.17,230.05 224.12,229.25"
            fill="none" stroke="#000000" stroke-width="1" />
        <polyline id="SvgjsPolyline2147"
            points="174.9,298.07 175.43,322.06 176.68,340.02 177.88,348.93 179.11,354.8 180.96,360.51 182.26,363.21 183.95,365.68 186.12,367.74 188.74,369.19 191.63,369.97 197.62,370.25 212.6,369.64 218.59,369.98 224.53,370.82"
            fill="none" stroke="#000000" stroke-width="1" />
        <polyline id="SvgjsPolyline2148"
            points="297.28,298.89 299.55,300.77 302.47,301.48 332.12,306.02 349.85,309.12 367.46,312.82 420.07,325.02 440.7,328.93 461.47,332.04 488.32,334.85 518.25,336.77 548.23,337.98 599.21,339.34"
            fill="none" stroke="#000000" stroke-width="1" />
        <polyline id="SvgjsPolyline2149"
            points="1.46,522.98 13.41,532.06 25.75,540.58 41.01,550.13 54.11,557.42 64.96,562.55 73.39,565.67 82.14,567.78 88.1,568.39 94.09,568.22 102.91,566.48 108.59,564.54 125.2,557.63 131,556.09 133.97,555.74 136.97,555.75 142.86,556.82 154.11,561 159.91,562.49 162.9,562.78 168.87,562.36 177.57,560.06 194.55,554.11 223.04,544.71 231.75,542.47 237.71,541.8 240.71,541.81 246.66,542.51 267.01,547.65 272.98,548.27 275.98,548.24 284.88,546.98 317.03,539.58 325.95,538.41 334.93,538.74 352.64,541.94 361.61,542.46 373.56,541.39 403.16,536.53 418.05,534.78 424.05,534.59 430.04,534.8 450.89,537.35 459.87,537.82 468.85,537.35 489.72,535.01 501.71,534.55 510.7,534.77 522.68,535.56 597.34,542.64"
            fill="none" stroke="#000000" stroke-width="1" />
        <polyline id="SvgjsPolyline2150"
            points="132.17,301.95 132.18,298.95 132.51,316.95 133.33,331.93 134.75,346.86 136.99,361.69 139.69,373.38 142.63,381.88 145.35,387.22 147.08,389.67 149.14,391.84 151.59,393.57 154.39,394.61 157.37,394.87 160.33,394.45 163.19,393.55 168.57,390.9 186.05,379.28 191.24,376.26 196.67,373.72 202.35,371.8 208.23,370.61 214.21,370.17 220.2,370.42"
            fill="none" stroke="#000000" stroke-width="1" />
        <polyline id="SvgjsPolyline2151"
            points="132.15,302.48 132.41,287.48 133.29,269.5 134.65,254.57 136.28,242.68 138.63,230.91 141.11,222.27 144.69,214.02 148.19,209.17 150.45,207.21 153.11,205.82 156.03,205.2 159.02,205.33 161.93,206.03 164.73,207.13 170,209.98 187.48,221.61 195.45,225.78 203.98,228.61 209.9,229.59 215.89,229.83"
            fill="none" stroke="#000000" stroke-width="1" />
        <polyline id="SvgjsPolyline2152"
            points="162.51,298.77 162.53,301.77 162.69,286.77 163.28,271.79 164.18,259.82 165.26,250.89 166.93,242.05 168.61,236.29 171.17,230.87 172.98,228.49 175.29,226.58 178.02,225.38 180.98,224.93 186.94,225.51 198.62,228.29 207.49,229.76 213.48,230.06 222.45,229.42 228.34,228.32 236.99,225.83 245.36,222.54 253.49,218.68"
            fill="none" stroke="#000000" stroke-width="1" />
        <polyline id="SvgjsPolyline2153"
            points="162.89,298.41 163.58,325.4 164.38,337.38 165.33,346.32 166.78,355.2 168.22,361.03 170.33,366.64 171.79,369.25 173.67,371.58 176.04,373.41 178.82,374.5 181.8,374.86 187.75,374.21 202.38,370.93 211.33,369.97"
            fill="none" stroke="#000000" stroke-width="1" />
        <polyline id="SvgjsPolyline2154"
            points="1.37,538.09 13.74,546.57 26.45,554.53 42.11,563.41 52.83,568.8 63.86,573.52 72.41,576.32 81.22,578.09 87.21,578.49 93.19,578.14 101.98,576.25 107.65,574.3 121.58,568.72 127.35,567.1 130.31,566.66 133.31,566.55 139.24,567.38 150.57,571.31 156.37,572.8 159.36,573.1 165.33,572.68 171.16,571.27 191.15,564.85 214.54,559.46 234.71,553.66 240.64,552.72 243.63,552.59 249.61,553.04 270.05,557.8 276.02,558.34 279.02,558.28 284.97,557.58 311.32,551.67 320.19,550.19 329.18,550.07 335.13,550.83 349.89,553.45 358.88,553.68 367.82,552.71 412.22,545.39 421.15,544.31 427.14,543.99 436.13,544.32 454,546.52 462.98,546.94 471.97,546.41 486.86,544.68 495.83,543.96 504.83,543.75 513.83,544 531.78,545.31 597.49,551.48"
            fill="none" stroke="#000000" stroke-width="1" />
        <polyline id="SvgjsPolyline2155"
            points="144.15,298.98 144.17,301.98 144.43,283.98 145.15,269 146.16,257.05 147.7,245.15 149.39,236.31 151.86,227.66 154.25,222.16 155.82,219.61 157.75,217.31 160.11,215.47 162.87,214.33 165.84,214 168.82,214.35 174.51,216.23 190.61,224.26 198.99,227.53 204.81,228.99 210.75,229.77 219.74,229.66"
            fill="none" stroke="#000000" stroke-width="1" />
        <polyline id="SvgjsPolyline2156"
            points="144.13,298.51 145.05,328.5 145.97,340.46 147.38,352.38 148.92,361.24 151.12,369.97 153.21,375.59 156.18,380.79 158.18,383.02 160.62,384.75 163.43,385.75 166.42,385.94 169.38,385.5 175.04,383.52 193.9,374.31 202.45,371.52"
            fill="none" stroke="#000000" stroke-width="1" />
        <polyline id="SvgjsPolyline2157"
            points="2.01,553.17 14.77,561.05 27.82,568.45 41.15,575.32 52.05,580.33 60.42,583.64 69,586.35 77.82,588.14 83.79,588.62 89.79,588.42 98.63,586.81 104.36,585.02 118.37,579.68 124.14,578.04 127.1,577.55 130.09,577.37 136.05,578.02 150.33,582.58 156.25,583.48 159.24,583.42 165.15,582.42 179.47,577.95 188.22,575.86 197.15,574.76 212.12,573.97 221.07,572.99 226.95,571.8 241.45,568.01 247.4,567.24 250.4,567.22 256.36,567.88 273.93,571.76 279.91,572.2 282.91,572.11 291.81,570.83 309.4,567.01 318.31,565.82 327.29,566.06 342.07,568.62 351.04,569.24 360,568.44 380.73,565.14 404.61,562.69 428.4,559.55 434.39,559.28 440.39,559.48 458.27,561.54 467.26,561.9 476.24,561.36 494.13,559.41 506.11,558.85 518.11,559.1 530.08,559.88 598.8,566.09"
            fill="none" stroke="#000000" stroke-width="1" />
        <polyline id="SvgjsPolyline2158"
            points="0.73,566.57 24.42,579.52 37.93,586.04 48.95,590.78 57.38,593.93 66,596.52 74.82,598.26 80.8,598.78 86.8,598.67 95.67,597.25 101.44,595.61 118.41,589.61 124.27,588.37 127.26,588.14 133.23,588.68 147.58,593.01 153.5,593.87 159.47,593.39 176.78,588.5 185.65,587.01 194.64,586.99 215.5,589.43 224.48,589.89 233.43,589.01 248.04,585.66 254.01,585.05 259.99,585.42 274.67,588.46 283.61,589.37 289.6,589.04 307.31,585.82 316.26,584.97 322.25,585.23 340.03,588 346.02,588.17 352,587.65 366.82,585.33 375.78,584.54 384.78,584.49 402.76,585.28 411.76,585.35 420.74,584.77 435.62,582.93 441.61,582.59 450.6,583.03 465.5,584.67 474.5,584.83 501.38,582.36 516.37,581.99 537.34,583.05 597.12,588.16"
            fill="none" stroke="#000000" stroke-width="1" />
        <polyline id="SvgjsPolyline2159"
            points="1.54,563.11 11.96,569.07 25.2,576.11 35.98,581.37 46.96,586.21 55.37,589.42 63.97,592.07 72.79,593.85 78.76,594.38 84.76,594.27 93.63,592.85 99.4,591.19 116.31,585.03 122.15,583.7 128.14,583.55 131.11,583.97 145.43,588.37 151.35,589.3 154.35,589.27 160.27,588.33 174.62,583.97 183.41,582.1 192.39,581.54 210.37,582.38 219.36,582.28 228.25,580.96 242.83,577.43 248.8,576.87 251.79,576.95 257.74,577.76 272.39,580.93 278.36,581.45 281.36,581.4 287.33,580.76 307.93,576.72 313.9,576.14 322.88,576.57 337.67,579.06 346.65,579.38 352.62,578.79 373.38,575.68 382.36,575.09 406.34,574.29 430.16,571.35 436.14,570.89 445.13,571.11 460.03,572.83 469.02,573.28 478,572.83 498.89,570.69 510.88,570.3 522.88,570.64 534.85,571.44 597.6,576.99"
            fill="none" stroke="#000000" stroke-width="1" />
        <polyline id="SvgjsPolyline2160" points="0.02,580.13 21.48,590.88 40.7,599.33" fill="none" stroke="#000000"
            stroke-width="1" />
        <polyline id="SvgjsPolyline2161" points="173.06,599.97 179.03,599.51 185.03,599.72" fill="none" stroke="#000000"
            stroke-width="1" />
        <polyline id="SvgjsPolyline2162"
            points="163.83,599.78 172.52,597.46 175.48,596.98 181.47,596.67 190.41,597.61 199.21,599.46" fill="none"
            stroke="#000000" stroke-width="1" />
        <polyline id="SvgjsPolyline2163" points="242.21,599.34 250.99,597.36 256.95,596.72 262.94,597.04 277.66,599.92"
            fill="none" stroke="#000000" stroke-width="1" />
        <polyline id="SvgjsPolyline2164" points="297.76,599.9 306.63,598.38 315.61,597.86 321.58,598.35 330.46,599.86"
            fill="none" stroke="#000000" stroke-width="1" />
        <polyline id="SvgjsPolyline2165" points="350.07,599.94 361.93,598.1 370.9,597.49 379.89,597.85 397.78,599.87"
            fill="none" stroke="#000000" stroke-width="1" />
        <polyline id="SvgjsPolyline2166"
            points="101.58,599.16 112.87,595.12 118.69,593.66 121.66,593.28 127.65,593.48 133.49,594.84 144.97,598.27 150.94,598.74 156.88,597.95 174.21,593.12 180.16,592.31 183.15,592.21 192.12,592.9 215.71,597.28 224.67,598.13 233.63,597.46 248.28,594.28 254.26,593.81 260.23,594.28 274.94,597.22 283.91,597.85 289.88,597.35 304.66,594.81 310.64,594.32 319.61,594.86 331.45,596.85 337.42,597.39 343.41,597.2 361.22,594.62 370.2,594.08 382.18,594.69 406.06,597.08 418.05,597.45 424.05,597.17 438.94,595.44 444.93,595.09 450.93,595.26 468.83,597.07 477.83,597.16 501.72,594.94 516.71,594.39 528.7,594.71 540.68,595.45 594.5,599.9"
            fill="none" stroke="#000000" stroke-width="1" />
        <polyline id="SvgjsPolyline2167" points="2.56,594.96 13.46,600" fill="none" stroke="#000000" stroke-width="1" />
    </g>
</svg>
